<svg width="35" height="35" viewBox="0 0 35 35" fill="none" xmlns="http://www.w3.org/2000/svg">
<path d="M12.3381 4.02878C13.4506 4.02878 14.3525 3.1269 14.3525 2.01439C14.3525 0.901873 13.4506 0 12.3381 0C11.2256 0 10.3237 0.901873 10.3237 2.01439C10.3237 3.1269 11.2256 4.02878 12.3381 4.02878Z" fill="white"/>
<path d="M17.4861 4.02878C18.5986 4.02878 19.5005 3.1269 19.5005 2.01439C19.5005 0.901873 18.5986 0 17.4861 0C16.3736 0 15.4717 0.901873 15.4717 2.01439C15.4717 3.1269 16.3736 4.02878 17.4861 4.02878Z" fill="white"/>
<path d="M22.6619 4.02878C23.7744 4.02878 24.6762 3.1269 24.6762 2.01439C24.6762 0.901873 23.7744 0 22.6619 0C21.5493 0 20.6475 0.901873 20.6475 2.01439C20.6475 3.1269 21.5493 4.02878 22.6619 4.02878Z" fill="white"/>
<path d="M12.3381 9.20462C13.4506 9.20462 14.3525 8.30275 14.3525 7.19023C14.3525 6.07771 13.4506 5.17584 12.3381 5.17584C11.2256 5.17584 10.3237 6.07771 10.3237 7.19023C10.3237 8.30275 11.2256 9.20462 12.3381 9.20462Z" fill="white"/>
<path d="M7.19016 9.20462C8.30268 9.20462 9.20456 8.30275 9.20456 7.19023C9.20456 6.07771 8.30268 5.17584 7.19016 5.17584C6.07765 5.17584 5.17578 6.07771 5.17578 7.19023C5.17578 8.30275 6.07765 9.20462 7.19016 9.20462Z" fill="white"/>
<path d="M17.4861 9.20462C18.5986 9.20462 19.5005 8.30275 19.5005 7.19023C19.5005 6.07771 18.5986 5.17584 17.4861 5.17584C16.3736 5.17584 15.4717 6.07771 15.4717 7.19023C15.4717 8.30275 16.3736 9.20462 17.4861 9.20462Z" fill="white"/>
<path d="M22.6619 9.20462C23.7744 9.20462 24.6762 8.30275 24.6762 7.19023C24.6762 6.07771 23.7744 5.17584 22.6619 5.17584C21.5493 5.17584 20.6475 6.07771 20.6475 7.19023C20.6475 8.30275 21.5493 9.20462 22.6619 9.20462Z" fill="white"/>
<path d="M27.8098 9.20462C28.9223 9.20462 29.8242 8.30275 29.8242 7.19023C29.8242 6.07771 28.9223 5.17584 27.8098 5.17584C26.6973 5.17584 25.7954 6.07771 25.7954 7.19023C25.7954 8.30275 26.6973 9.20462 27.8098 9.20462Z" fill="white"/>
<path d="M22.6619 35C23.7744 35 24.6762 34.0982 24.6762 32.9856C24.6762 31.8731 23.7744 30.9713 22.6619 30.9713C21.5493 30.9713 20.6475 31.8731 20.6475 32.9856C20.6475 34.0982 21.5493 35 22.6619 35Z" fill="white"/>
<path d="M17.4861 35C18.5986 35 19.5005 34.0982 19.5005 32.9856C19.5005 31.8731 18.5986 30.9713 17.4861 30.9713C16.3736 30.9713 15.4717 31.8731 15.4717 32.9856C15.4717 34.0982 16.3736 35 17.4861 35Z" fill="white"/>
<path d="M12.3381 35C13.4506 35 14.3525 34.0982 14.3525 32.9856C14.3525 31.8731 13.4506 30.9713 12.3381 30.9713C11.2256 30.9713 10.3237 31.8731 10.3237 32.9856C10.3237 34.0982 11.2256 35 12.3381 35Z" fill="white"/>
<path d="M22.6619 29.8242C23.7744 29.8242 24.6762 28.9223 24.6762 27.8098C24.6762 26.6973 23.7744 25.7954 22.6619 25.7954C21.5493 25.7954 20.6475 26.6973 20.6475 27.8098C20.6475 28.9223 21.5493 29.8242 22.6619 29.8242Z" fill="white"/>
<path d="M27.8098 29.8242C28.9223 29.8242 29.8242 28.9223 29.8242 27.8098C29.8242 26.6973 28.9223 25.7954 27.8098 25.7954C26.6973 25.7954 25.7954 26.6973 25.7954 27.8098C25.7954 28.9223 26.6973 29.8242 27.8098 29.8242Z" fill="white"/>
<path d="M17.4861 29.8242C18.5986 29.8242 19.5005 28.9223 19.5005 27.8098C19.5005 26.6973 18.5986 25.7954 17.4861 25.7954C16.3736 25.7954 15.4717 26.6973 15.4717 27.8098C15.4717 28.9223 16.3736 29.8242 17.4861 29.8242Z" fill="white"/>
<path d="M12.3381 29.8242C13.4506 29.8242 14.3525 28.9223 14.3525 27.8098C14.3525 26.6973 13.4506 25.7954 12.3381 25.7954C11.2256 25.7954 10.3237 26.6973 10.3237 27.8098C10.3237 28.9223 11.2256 29.8242 12.3381 29.8242Z" fill="white"/>
<path d="M7.19016 29.8242C8.30268 29.8242 9.20456 28.9223 9.20456 27.8098C9.20456 26.6973 8.30268 25.7954 7.19016 25.7954C6.07765 25.7954 5.17578 26.6973 5.17578 27.8098C5.17578 28.9223 6.07765 29.8242 7.19016 29.8242Z" fill="white"/>
<path d="M12.3381 14.3525C13.4506 14.3525 14.3525 13.4506 14.3525 12.3381C14.3525 11.2256 13.4506 10.3237 12.3381 10.3237C11.2256 10.3237 10.3237 11.2256 10.3237 12.3381C10.3237 13.4506 11.2256 14.3525 12.3381 14.3525Z" fill="white"/>
<path d="M7.19016 14.3525C8.30268 14.3525 9.20456 13.4506 9.20456 12.3381C9.20456 11.2256 8.30268 10.3237 7.19016 10.3237C6.07765 10.3237 5.17578 11.2256 5.17578 12.3381C5.17578 13.4506 6.07765 14.3525 7.19016 14.3525Z" fill="white"/>
<path d="M2.01438 14.3525C3.1269 14.3525 4.02878 13.4506 4.02878 12.3381C4.02878 11.2256 3.1269 10.3237 2.01438 10.3237C0.901867 10.3237 0 11.2256 0 12.3381C0 13.4506 0.901867 14.3525 2.01438 14.3525Z" fill="white"/>
<path d="M17.4861 14.3525C18.5986 14.3525 19.5005 13.4506 19.5005 12.3381C19.5005 11.2256 18.5986 10.3237 17.4861 10.3237C16.3736 10.3237 15.4717 11.2256 15.4717 12.3381C15.4717 13.4506 16.3736 14.3525 17.4861 14.3525Z" fill="white"/>
<path d="M22.6619 14.3525C23.7744 14.3525 24.6762 13.4506 24.6762 12.3381C24.6762 11.2256 23.7744 10.3237 22.6619 10.3237C21.5493 10.3237 20.6475 11.2256 20.6475 12.3381C20.6475 13.4506 21.5493 14.3525 22.6619 14.3525Z" fill="white"/>
<path d="M27.8098 14.3525C28.9223 14.3525 29.8242 13.4506 29.8242 12.3381C29.8242 11.2256 28.9223 10.3237 27.8098 10.3237C26.6973 10.3237 25.7954 11.2256 25.7954 12.3381C25.7954 13.4506 26.6973 14.3525 27.8098 14.3525Z" fill="white"/>
<path d="M32.9856 14.3525C34.0981 14.3525 35 13.4506 35 12.3381C35 11.2256 34.0981 10.3237 32.9856 10.3237C31.8731 10.3237 30.9712 11.2256 30.9712 12.3381C30.9712 13.4506 31.8731 14.3525 32.9856 14.3525Z" fill="white"/>
<path d="M12.3381 19.5003C13.4506 19.5003 14.3525 18.5985 14.3525 17.4859C14.3525 16.3734 13.4506 15.4716 12.3381 15.4716C11.2256 15.4716 10.3237 16.3734 10.3237 17.4859C10.3237 18.5985 11.2256 19.5003 12.3381 19.5003Z" fill="white"/>
<path d="M7.19016 19.5003C8.30268 19.5003 9.20456 18.5985 9.20456 17.4859C9.20456 16.3734 8.30268 15.4716 7.19016 15.4716C6.07765 15.4716 5.17578 16.3734 5.17578 17.4859C5.17578 18.5985 6.07765 19.5003 7.19016 19.5003Z" fill="white"/>
<path d="M2.01438 19.5003C3.1269 19.5003 4.02878 18.5985 4.02878 17.4859C4.02878 16.3734 3.1269 15.4716 2.01438 15.4716C0.901867 15.4716 0 16.3734 0 17.4859C0 18.5985 0.901867 19.5003 2.01438 19.5003Z" fill="white"/>
<path d="M17.4861 19.5003C18.5986 19.5003 19.5005 18.5985 19.5005 17.4859C19.5005 16.3734 18.5986 15.4716 17.4861 15.4716C16.3736 15.4716 15.4717 16.3734 15.4717 17.4859C15.4717 18.5985 16.3736 19.5003 17.4861 19.5003Z" fill="white"/>
<path d="M22.6619 19.5003C23.7744 19.5003 24.6762 18.5985 24.6762 17.4859C24.6762 16.3734 23.7744 15.4716 22.6619 15.4716C21.5493 15.4716 20.6475 16.3734 20.6475 17.4859C20.6475 18.5985 21.5493 19.5003 22.6619 19.5003Z" fill="white"/>
<path d="M27.8098 19.5003C28.9223 19.5003 29.8242 18.5985 29.8242 17.4859C29.8242 16.3734 28.9223 15.4716 27.8098 15.4716C26.6973 15.4716 25.7954 16.3734 25.7954 17.4859C25.7954 18.5985 26.6973 19.5003 27.8098 19.5003Z" fill="white"/>
<path d="M32.9856 19.5003C34.0981 19.5003 35 18.5985 35 17.4859C35 16.3734 34.0981 15.4716 32.9856 15.4716C31.8731 15.4716 30.9712 16.3734 30.9712 17.4859C30.9712 18.5985 31.8731 19.5003 32.9856 19.5003Z" fill="white"/>
<path d="M12.3381 24.6762C13.4506 24.6762 14.3525 23.7744 14.3525 22.6618C14.3525 21.5493 13.4506 20.6475 12.3381 20.6475C11.2256 20.6475 10.3237 21.5493 10.3237 22.6618C10.3237 23.7744 11.2256 24.6762 12.3381 24.6762Z" fill="white"/>
<path d="M7.19016 24.6762C8.30268 24.6762 9.20456 23.7744 9.20456 22.6618C9.20456 21.5493 8.30268 20.6475 7.19016 20.6475C6.07765 20.6475 5.17578 21.5493 5.17578 22.6618C5.17578 23.7744 6.07765 24.6762 7.19016 24.6762Z" fill="white"/>
<path d="M2.01438 24.6762C3.1269 24.6762 4.02878 23.7744 4.02878 22.6618C4.02878 21.5493 3.1269 20.6475 2.01438 20.6475C0.901867 20.6475 0 21.5493 0 22.6618C0 23.7744 0.901867 24.6762 2.01438 24.6762Z" fill="white"/>
<path d="M17.4861 24.6762C18.5986 24.6762 19.5005 23.7744 19.5005 22.6618C19.5005 21.5493 18.5986 20.6475 17.4861 20.6475C16.3736 20.6475 15.4717 21.5493 15.4717 22.6618C15.4717 23.7744 16.3736 24.6762 17.4861 24.6762Z" fill="white"/>
<path d="M22.6619 24.6762C23.7744 24.6762 24.6762 23.7744 24.6762 22.6618C24.6762 21.5493 23.7744 20.6475 22.6619 20.6475C21.5493 20.6475 20.6475 21.5493 20.6475 22.6618C20.6475 23.7744 21.5493 24.6762 22.6619 24.6762Z" fill="white"/>
<path d="M27.8098 24.6762C28.9223 24.6762 29.8242 23.7744 29.8242 22.6618C29.8242 21.5493 28.9223 20.6475 27.8098 20.6475C26.6973 20.6475 25.7954 21.5493 25.7954 22.6618C25.7954 23.7744 26.6973 24.6762 27.8098 24.6762Z" fill="white"/>
<path d="M32.9856 24.6762C34.0981 24.6762 35 23.7744 35 22.6618C35 21.5493 34.0981 20.6475 32.9856 20.6475C31.8731 20.6475 30.9712 21.5493 30.9712 22.6618C30.9712 23.7744 31.8731 24.6762 32.9856 24.6762Z" fill="white"/>
</svg>
