<svg width="323" height="256" viewBox="0 0 323 256" fill="none" xmlns="http://www.w3.org/2000/svg">
<g clip-path="url(#clip0_8_4)">
<rect width="323" height="256" fill="#201E21"/>
<g opacity="0.5">
<path d="M0.950989 0.000152588V16.0001L10.6714 0.000152588H0.950989Z" fill="#7327FF"/>
<path d="M20.8547 0.000152588L0.950989 32.0002V56.0002L35.2036 0.000152588H20.8547Z" fill="#7327FF"/>
<path d="M25.0209 56.0002H10.6718L44.9245 0.000152588H59.2736L25.0209 56.0002Z" fill="#7327FF"/>
<path d="M49.5524 56.0002H35.2032L69.456 0.000152588H83.805L49.5524 56.0002Z" fill="#7327FF"/>
<path d="M73.6227 56.0002H59.2736L93.5262 0.000152588H107.875L73.6227 56.0002Z" fill="#7327FF"/>
<path d="M98.1541 56.0002H83.805L117.595 0.000152588H132.407L98.1541 56.0002Z" fill="#7327FF"/>
<path d="M122.224 56.0002H107.875L142.128 0.000152588H156.477L122.224 56.0002Z" fill="#7327FF"/>
<path d="M146.756 56.0002H132.407L166.197 0.000152588H180.546L146.756 56.0002Z" fill="#7327FF"/>
<path d="M170.826 56.0002H156.477L190.73 0.000152588H205.079L170.826 56.0002Z" fill="#7327FF"/>
<path d="M195.357 56.0002H180.545L214.798 0.000152588H229.147L195.357 56.0002Z" fill="#7327FF"/>
<path d="M219.428 56.0002H205.079L239.332 0.000152588H253.681L219.428 56.0002Z" fill="#7327FF"/>
<path d="M243.496 56.0002H229.147L263.4 0.000152588H277.749L243.496 56.0002Z" fill="#7327FF"/>
<path d="M287.47 0.000152588L253.681 56.0002H268.03L293.488 14.1178V0.000152588H287.47Z" fill="#7327FF"/>
<path d="M277.749 55.9997H292.098L293.486 53.6468V30.1174L277.749 55.9997Z" fill="#7327FF"/>
</g>
<path d="M-208.466 43.2006C-212.171 48.2006 -217.138 51 -222.312 51H-236L-210.287 15.3866C-205.949 9.37879 -200.065 6 -193.928 6H-180.908L-208.466 43.2006ZM-145.413 6H-158.432C-164.57 6 -170.454 9.37392 -174.792 15.3866L-200.505 51H-186.817C-181.643 51 -176.676 48.2006 -172.971 43.2006L-145.413 6ZM-109.917 6H-122.937C-129.074 6 -134.959 9.37392 -139.296 15.3866L-165.009 51H-151.321C-146.147 51 -141.18 48.2006 -137.475 43.2006L-109.917 6ZM-74.4218 6H-87.4417C-93.579 6 -99.4633 9.37392 -103.801 15.3866L-129.514 51H-115.826C-110.652 51 -105.685 48.2006 -101.98 43.2006L-74.4218 6ZM-38.9264 6H-51.9463C-58.0801 6 -63.9679 9.37392 -68.3055 15.3866L-94.0184 51H-80.3307C-75.1564 51 -70.1896 48.2006 -66.4847 43.2006L-38.9264 6ZM-3.43097 6H-16.4509C-22.5847 6 -28.469 9.37392 -32.8101 15.3866L-58.523 51H-44.8353C-39.661 51 -34.6942 48.2006 -30.9893 43.2006L-3.43097 6ZM32.0644 6H19.0445C12.9071 6 7.02291 9.37392 2.68529 15.3866L-23.0276 51H-9.33982C-4.1656 51 0.801226 48.2006 4.50613 43.2006L32.0644 6ZM67.5598 6H54.5399C48.4025 6 42.5184 9.37392 38.1807 15.3866L12.4678 51H26.1555C31.3297 51 36.2966 48.2006 40.0015 43.2006L67.5598 6ZM103.055 6H90.0353C83.8979 6 78.0137 9.37392 73.6761 15.3866L47.9632 51H61.6509C66.8251 51 71.792 48.2006 75.4969 43.2006L103.055 6ZM138.551 6H125.531C119.397 6 113.509 9.37392 109.172 15.3866L83.4586 51H97.1464C102.321 51 107.287 48.2006 110.992 43.2006L138.551 6ZM174.046 6H161.026C154.892 6 149.008 9.37392 144.667 15.3866L118.954 51H132.642C137.816 51 142.783 48.2006 146.488 43.2006L174.046 6ZM209.541 6H196.522C190.384 6 184.5 9.37392 180.162 15.3866L154.449 51H168.137C173.311 51 178.278 48.2006 181.983 43.2006L209.541 6ZM245.037 6H232.017C225.88 6 219.995 9.37392 215.658 15.3866L189.945 51H203.633C208.807 51 213.774 48.2006 217.478 43.2006L245.037 6ZM280.532 6H267.512C261.375 6 255.491 9.37392 251.153 15.3866L225.44 51H239.128C244.302 51 249.269 48.2006 252.974 43.2006L280.532 6ZM316.028 6H303.008C296.874 6 290.986 9.37392 286.648 15.3866L260.936 51H274.623C279.798 51 284.764 48.2006 288.469 43.2006L316.028 6ZM351.523 6H338.503C332.369 6 326.485 9.37392 322.144 15.3866L296.431 51H310.119C315.293 51 320.26 48.2006 323.965 43.2006L351.523 6ZM387.018 6H373.999C367.861 6 361.977 9.37392 357.639 15.3866L331.926 51H345.614C350.788 51 355.755 48.2006 359.46 43.2006L387.018 6ZM422.514 6H409.494C403.357 6 397.472 9.37392 393.135 15.3866L367.422 51H381.11C386.284 51 391.251 48.2006 394.955 43.2006L422.514 6ZM458.009 6H444.989C438.852 6 432.968 9.37392 428.63 15.3866L402.917 51H416.605C421.779 51 426.746 48.2006 430.451 43.2006L458.009 6ZM493.505 6H480.485C474.347 6 468.463 9.37392 464.125 15.3866L438.413 51H452.1C457.275 51 462.241 48.2006 465.946 43.2006L493.505 6ZM529 6H515.98C509.846 6 503.958 9.37392 499.621 15.3866L473.908 51H487.596C492.77 51 497.737 48.2006 501.442 43.2006L529 6Z" fill="#D9D9D9"/>
<line x1="100.354" y1="228.471" x2="90.3536" y2="238.471" stroke="#D9D9D9"/>
<line x1="60.3536" y1="228.471" x2="50.3536" y2="238.471" stroke="#D9D9D9"/>
<line x1="90.3536" y1="228.471" x2="80.3536" y2="238.471" stroke="#D9D9D9"/>
<line x1="50.3536" y1="228.471" x2="40.3536" y2="238.471" stroke="#D9D9D9"/>
<line x1="80.3536" y1="228.471" x2="70.3536" y2="238.471" stroke="#D9D9D9"/>
<line x1="40.3536" y1="228.471" x2="30.3536" y2="238.471" stroke="#D9D9D9"/>
<line x1="70.3536" y1="228.471" x2="60.3536" y2="238.471" stroke="#D9D9D9"/>
<line x1="30.3536" y1="228.471" x2="20.3536" y2="238.471" stroke="#D9D9D9"/>
<rect x="269" y="238.117" width="7" height="24" transform="rotate(-90 269 238.117)" fill="#D9D9D9"/>
<path d="M34.5669 183.252C33.5949 183.252 32.7369 183.078 31.9929 182.73C31.2489 182.382 30.6669 181.884 30.2469 181.236C29.8269 180.588 29.6169 179.808 29.6169 178.896V178.392H31.9569V178.896C31.9569 179.652 32.1909 180.222 32.6589 180.606C33.1269 180.978 33.7629 181.164 34.5669 181.164C35.3829 181.164 35.9889 181.002 36.3849 180.678C36.7929 180.354 36.9969 179.94 36.9969 179.436C36.9969 179.088 36.8949 178.806 36.6909 178.59C36.4989 178.374 36.2109 178.2 35.8269 178.068C35.4549 177.924 34.9989 177.792 34.4589 177.672L34.0449 177.582C33.1809 177.39 32.4369 177.15 31.8129 176.862C31.2009 176.562 30.7269 176.172 30.3909 175.692C30.0669 175.212 29.9049 174.588 29.9049 173.82C29.9049 173.052 30.0849 172.398 30.4449 171.858C30.8169 171.306 31.3329 170.886 31.9929 170.598C32.6649 170.298 33.4509 170.148 34.3509 170.148C35.2509 170.148 36.0489 170.304 36.7449 170.616C37.4529 170.916 38.0049 171.372 38.4009 171.984C38.8089 172.584 39.0129 173.34 39.0129 174.252V174.792H36.6729V174.252C36.6729 173.772 36.5769 173.388 36.3849 173.1C36.2049 172.8 35.9409 172.584 35.5929 172.452C35.2449 172.308 34.8309 172.236 34.3509 172.236C33.6309 172.236 33.0969 172.374 32.7489 172.65C32.4129 172.914 32.2449 173.28 32.2449 173.748C32.2449 174.06 32.3229 174.324 32.4789 174.54C32.6469 174.756 32.8929 174.936 33.2169 175.08C33.5409 175.224 33.9549 175.35 34.4589 175.458L34.8729 175.548C35.7729 175.74 36.5529 175.986 37.2129 176.286C37.8849 176.586 38.4069 176.982 38.7789 177.474C39.1509 177.966 39.3369 178.596 39.3369 179.364C39.3369 180.132 39.1389 180.81 38.7429 181.398C38.3589 181.974 37.8069 182.43 37.0869 182.766C36.3789 183.09 35.5389 183.252 34.5669 183.252ZM45.2489 183.252C44.3609 183.252 43.5749 183.066 42.8909 182.694C42.2189 182.31 41.6909 181.776 41.3069 181.092C40.9349 180.396 40.7489 179.58 40.7489 178.644V178.428C40.7489 177.492 40.9349 176.682 41.3069 175.998C41.6789 175.302 42.2009 174.768 42.8729 174.396C43.5449 174.012 44.3249 173.82 45.2129 173.82C46.0889 173.82 46.8509 174.018 47.4989 174.414C48.1469 174.798 48.6509 175.338 49.0109 176.034C49.3709 176.718 49.5509 177.516 49.5509 178.428V179.202H43.0529C43.0769 179.814 43.3049 180.312 43.7369 180.696C44.1689 181.08 44.6969 181.272 45.3209 181.272C45.9569 181.272 46.4249 181.134 46.7249 180.858C47.0249 180.582 47.2529 180.276 47.4089 179.94L49.2629 180.912C49.0949 181.224 48.8489 181.566 48.5249 181.938C48.2129 182.298 47.7929 182.61 47.2649 182.874C46.7369 183.126 46.0649 183.252 45.2489 183.252ZM43.0709 177.51H47.2469C47.1989 176.994 46.9889 176.58 46.6169 176.268C46.2569 175.956 45.7829 175.8 45.1949 175.8C44.5829 175.8 44.0969 175.956 43.7369 176.268C43.3769 176.58 43.1549 176.994 43.0709 177.51ZM51.1376 178.572V178.284C51.1376 177.348 51.3236 176.55 51.6956 175.89C52.0676 175.218 52.5596 174.708 53.1716 174.36C53.7956 174 54.4736 173.82 55.2056 173.82C56.0216 173.82 56.6396 173.964 57.0596 174.252C57.4796 174.54 57.7856 174.84 57.9776 175.152H58.3016V174.072H60.5336V184.584C60.5336 185.196 60.3536 185.682 59.9936 186.042C59.6336 186.414 59.1536 186.6 58.5536 186.6H52.5776V184.62H57.7616C58.0976 184.62 58.2656 184.44 58.2656 184.08V181.758H57.9416C57.8216 181.95 57.6536 182.148 57.4376 182.352C57.2216 182.544 56.9336 182.706 56.5736 182.838C56.2136 182.97 55.7576 183.036 55.2056 183.036C54.4736 183.036 53.7956 182.862 53.1716 182.514C52.5596 182.154 52.0676 181.644 51.6956 180.984C51.3236 180.312 51.1376 179.508 51.1376 178.572ZM55.8536 181.056C56.5496 181.056 57.1316 180.834 57.5996 180.39C58.0676 179.946 58.3016 179.322 58.3016 178.518V178.338C58.3016 177.522 58.0676 176.898 57.5996 176.466C57.1436 176.022 56.5616 175.8 55.8536 175.8C55.1576 175.8 54.5756 176.022 54.1076 176.466C53.6396 176.898 53.4056 177.522 53.4056 178.338V178.518C53.4056 179.322 53.6396 179.946 54.1076 180.39C54.5756 180.834 55.1576 181.056 55.8536 181.056ZM66.4501 183.144C65.7541 183.144 65.1421 182.988 64.6141 182.676C64.0981 182.352 63.6961 181.908 63.4081 181.344C63.1201 180.78 62.9761 180.132 62.9761 179.4V174.072H65.2441V179.22C65.2441 179.892 65.4061 180.396 65.7301 180.732C66.0661 181.068 66.5401 181.236 67.1521 181.236C67.8481 181.236 68.3881 181.008 68.7721 180.552C69.1561 180.084 69.3481 179.436 69.3481 178.608V174.072H71.6161V183H69.3841V181.83H69.0601C68.9161 182.13 68.6461 182.424 68.2501 182.712C67.8541 183 67.2541 183.144 66.4501 183.144ZM74.1399 183V174.072H76.3719V175.08H76.6959C76.8279 174.72 77.0439 174.456 77.3439 174.288C77.6559 174.12 78.0159 174.036 78.4239 174.036H79.5039V176.052H78.3879C77.8119 176.052 77.3379 176.208 76.9659 176.52C76.5939 176.82 76.4079 177.288 76.4079 177.924V183H74.1399ZM83.8377 183.252C83.2017 183.252 82.6317 183.144 82.1277 182.928C81.6237 182.7 81.2217 182.376 80.9217 181.956C80.6337 181.524 80.4897 181.002 80.4897 180.39C80.4897 179.778 80.6337 179.268 80.9217 178.86C81.2217 178.44 81.6297 178.128 82.1457 177.924C82.6737 177.708 83.2737 177.6 83.9457 177.6H86.3937V177.096C86.3937 176.676 86.2617 176.334 85.9977 176.07C85.7337 175.794 85.3137 175.656 84.7377 175.656C84.1737 175.656 83.7537 175.788 83.4777 176.052C83.2017 176.304 83.0217 176.634 82.9377 177.042L80.8497 176.34C80.9937 175.884 81.2217 175.47 81.5337 175.098C81.8577 174.714 82.2837 174.408 82.8117 174.18C83.3517 173.94 84.0057 173.82 84.7737 173.82C85.9497 173.82 86.8797 174.114 87.5637 174.702C88.2477 175.29 88.5897 176.142 88.5897 177.258V180.588C88.5897 180.948 88.7577 181.128 89.0937 181.128H89.8137V183H88.3017C87.8577 183 87.4917 182.892 87.2037 182.676C86.9157 182.46 86.7717 182.172 86.7717 181.812V181.794H86.4297C86.3817 181.938 86.2737 182.13 86.1057 182.37C85.9377 182.598 85.6737 182.802 85.3137 182.982C84.9537 183.162 84.4617 183.252 83.8377 183.252ZM84.2337 181.416C84.8697 181.416 85.3857 181.242 85.7817 180.894C86.1897 180.534 86.3937 180.06 86.3937 179.472V179.292H84.1077C83.6877 179.292 83.3577 179.382 83.1177 179.562C82.8777 179.742 82.7577 179.994 82.7577 180.318C82.7577 180.642 82.8837 180.906 83.1357 181.11C83.3877 181.314 83.7537 181.416 84.2337 181.416ZM91.4719 183V174.072H93.7039V175.242H94.0279C94.1719 174.93 94.4419 174.636 94.8379 174.36C95.2339 174.072 95.8339 173.928 96.6379 173.928C97.3339 173.928 97.9399 174.09 98.4559 174.414C98.9839 174.726 99.3919 175.164 99.6799 175.728C99.9679 176.28 100.112 176.928 100.112 177.672V183H97.8439V177.852C97.8439 177.18 97.6759 176.676 97.3399 176.34C97.0159 176.004 96.5479 175.836 95.9359 175.836C95.2399 175.836 94.6999 176.07 94.3159 176.538C93.9319 176.994 93.7399 177.636 93.7399 178.464V183H91.4719ZM106.758 183.252C105.894 183.252 105.108 183.072 104.4 182.712C103.704 182.352 103.152 181.83 102.744 181.146C102.336 180.462 102.132 179.634 102.132 178.662V178.41C102.132 177.438 102.336 176.61 102.744 175.926C103.152 175.242 103.704 174.72 104.4 174.36C105.108 174 105.894 173.82 106.758 173.82C107.61 173.82 108.342 173.97 108.954 174.27C109.566 174.57 110.058 174.984 110.43 175.512C110.814 176.028 111.066 176.616 111.186 177.276L108.99 177.744C108.942 177.384 108.834 177.06 108.666 176.772C108.498 176.484 108.258 176.256 107.946 176.088C107.646 175.92 107.268 175.836 106.812 175.836C106.356 175.836 105.942 175.938 105.57 176.142C105.21 176.334 104.922 176.628 104.706 177.024C104.502 177.408 104.4 177.882 104.4 178.446V178.626C104.4 179.19 104.502 179.67 104.706 180.066C104.922 180.45 105.21 180.744 105.57 180.948C105.942 181.14 106.356 181.236 106.812 181.236C107.496 181.236 108.012 181.062 108.36 180.714C108.72 180.354 108.948 179.886 109.044 179.31L111.24 179.832C111.084 180.468 110.814 181.05 110.43 181.578C110.058 182.094 109.566 182.502 108.954 182.802C108.342 183.102 107.61 183.252 106.758 183.252ZM106.758 186.852C106.374 186.852 105.996 186.816 105.624 186.744C105.264 186.672 104.952 186.594 104.688 186.51L105.048 185.16C105.276 185.232 105.516 185.298 105.768 185.358C106.032 185.418 106.326 185.448 106.65 185.448C106.89 185.448 107.088 185.406 107.244 185.322C107.4 185.238 107.478 185.106 107.478 184.926C107.478 184.758 107.406 184.632 107.262 184.548C107.13 184.476 106.908 184.44 106.596 184.44H105.912L106.038 182.64H107.586L107.514 183.702C107.97 183.702 108.354 183.828 108.666 184.08C108.99 184.332 109.152 184.704 109.152 185.196C109.152 185.58 109.038 185.892 108.81 186.132C108.582 186.384 108.282 186.564 107.91 186.672C107.55 186.792 107.166 186.852 106.758 186.852ZM115.883 183.252C115.247 183.252 114.677 183.144 114.173 182.928C113.669 182.7 113.267 182.376 112.967 181.956C112.679 181.524 112.535 181.002 112.535 180.39C112.535 179.778 112.679 179.268 112.967 178.86C113.267 178.44 113.675 178.128 114.191 177.924C114.719 177.708 115.319 177.6 115.991 177.6H118.439V177.096C118.439 176.676 118.307 176.334 118.043 176.07C117.779 175.794 117.359 175.656 116.783 175.656C116.219 175.656 115.799 175.788 115.523 176.052C115.247 176.304 115.067 176.634 114.983 177.042L112.895 176.34C113.039 175.884 113.267 175.47 113.579 175.098C113.903 174.714 114.329 174.408 114.857 174.18C115.397 173.94 116.051 173.82 116.819 173.82C117.995 173.82 118.925 174.114 119.609 174.702C120.293 175.29 120.635 176.142 120.635 177.258V180.588C120.635 180.948 120.803 181.128 121.139 181.128H121.859V183H120.347C119.903 183 119.537 182.892 119.249 182.676C118.961 182.46 118.817 182.172 118.817 181.812V181.794H118.475C118.427 181.938 118.319 182.13 118.151 182.37C117.983 182.598 117.719 182.802 117.359 182.982C116.999 183.162 116.507 183.252 115.883 183.252ZM116.279 181.416C116.915 181.416 117.431 181.242 117.827 180.894C118.235 180.534 118.439 180.06 118.439 179.472V179.292H116.153C115.733 179.292 115.403 179.382 115.163 179.562C114.923 179.742 114.803 179.994 114.803 180.318C114.803 180.642 114.929 180.906 115.181 181.11C115.433 181.314 115.799 181.416 116.279 181.416ZM128.015 183V170.4H133.199C133.991 170.4 134.687 170.562 135.287 170.886C135.899 171.198 136.373 171.642 136.709 172.218C137.057 172.794 137.231 173.478 137.231 174.27V174.522C137.231 175.302 137.051 175.986 136.691 176.574C136.343 177.15 135.863 177.6 135.251 177.924C134.651 178.236 133.967 178.392 133.199 178.392H130.391V183H128.015ZM130.391 176.232H132.965C133.529 176.232 133.985 176.076 134.333 175.764C134.681 175.452 134.855 175.026 134.855 174.486V174.306C134.855 173.766 134.681 173.34 134.333 173.028C133.985 172.716 133.529 172.56 132.965 172.56H130.391V176.232ZM142.807 183.252C141.919 183.252 141.133 183.066 140.449 182.694C139.777 182.31 139.249 181.776 138.865 181.092C138.493 180.396 138.307 179.58 138.307 178.644V178.428C138.307 177.492 138.493 176.682 138.865 175.998C139.237 175.302 139.759 174.768 140.431 174.396C141.103 174.012 141.883 173.82 142.771 173.82C143.647 173.82 144.409 174.018 145.057 174.414C145.705 174.798 146.209 175.338 146.569 176.034C146.929 176.718 147.109 177.516 147.109 178.428V179.202H140.611C140.635 179.814 140.863 180.312 141.295 180.696C141.727 181.08 142.255 181.272 142.879 181.272C143.515 181.272 143.983 181.134 144.283 180.858C144.583 180.582 144.811 180.276 144.967 179.94L146.821 180.912C146.653 181.224 146.407 181.566 146.083 181.938C145.771 182.298 145.351 182.61 144.823 182.874C144.295 183.126 143.623 183.252 142.807 183.252ZM140.629 177.51H144.805C144.757 176.994 144.547 176.58 144.175 176.268C143.815 175.956 143.341 175.8 142.753 175.8C142.141 175.8 141.655 175.956 141.295 176.268C140.935 176.58 140.713 176.994 140.629 177.51ZM152.836 183.252C151.672 183.252 150.718 183 149.974 182.496C149.23 181.992 148.78 181.272 148.624 180.336L150.712 179.796C150.796 180.216 150.934 180.546 151.126 180.786C151.33 181.026 151.576 181.2 151.864 181.308C152.164 181.404 152.488 181.452 152.836 181.452C153.364 181.452 153.754 181.362 154.006 181.182C154.258 180.99 154.384 180.756 154.384 180.48C154.384 180.204 154.264 179.994 154.024 179.85C153.784 179.694 153.4 179.568 152.872 179.472L152.368 179.382C151.744 179.262 151.174 179.1 150.658 178.896C150.142 178.68 149.728 178.386 149.416 178.014C149.104 177.642 148.948 177.162 148.948 176.574C148.948 175.686 149.272 175.008 149.92 174.54C150.568 174.06 151.42 173.82 152.476 173.82C153.472 173.82 154.3 174.042 154.96 174.486C155.62 174.93 156.052 175.512 156.256 176.232L154.15 176.88C154.054 176.424 153.856 176.1 153.556 175.908C153.268 175.716 152.908 175.62 152.476 175.62C152.044 175.62 151.714 175.698 151.486 175.854C151.258 175.998 151.144 176.202 151.144 176.466C151.144 176.754 151.264 176.97 151.504 177.114C151.744 177.246 152.068 177.348 152.476 177.42L152.98 177.51C153.652 177.63 154.258 177.792 154.798 177.996C155.35 178.188 155.782 178.47 156.094 178.842C156.418 179.202 156.58 179.694 156.58 180.318C156.58 181.254 156.238 181.98 155.554 182.496C154.882 183 153.976 183.252 152.836 183.252ZM162.276 183.252C161.112 183.252 160.158 183 159.414 182.496C158.67 181.992 158.22 181.272 158.064 180.336L160.152 179.796C160.236 180.216 160.374 180.546 160.566 180.786C160.77 181.026 161.016 181.2 161.304 181.308C161.604 181.404 161.928 181.452 162.276 181.452C162.804 181.452 163.194 181.362 163.446 181.182C163.698 180.99 163.824 180.756 163.824 180.48C163.824 180.204 163.704 179.994 163.464 179.85C163.224 179.694 162.84 179.568 162.312 179.472L161.808 179.382C161.184 179.262 160.614 179.1 160.098 178.896C159.582 178.68 159.168 178.386 158.856 178.014C158.544 177.642 158.388 177.162 158.388 176.574C158.388 175.686 158.712 175.008 159.36 174.54C160.008 174.06 160.86 173.82 161.916 173.82C162.912 173.82 163.74 174.042 164.4 174.486C165.06 174.93 165.492 175.512 165.696 176.232L163.59 176.88C163.494 176.424 163.296 176.1 162.996 175.908C162.708 175.716 162.348 175.62 161.916 175.62C161.484 175.62 161.154 175.698 160.926 175.854C160.698 175.998 160.584 176.202 160.584 176.466C160.584 176.754 160.704 176.97 160.944 177.114C161.184 177.246 161.508 177.348 161.916 177.42L162.42 177.51C163.092 177.63 163.698 177.792 164.238 177.996C164.79 178.188 165.222 178.47 165.534 178.842C165.858 179.202 166.02 179.694 166.02 180.318C166.02 181.254 165.678 181.98 164.994 182.496C164.322 183 163.416 183.252 162.276 183.252ZM172.255 183.252C171.367 183.252 170.569 183.072 169.861 182.712C169.153 182.352 168.595 181.83 168.187 181.146C167.779 180.462 167.575 179.64 167.575 178.68V178.392C167.575 177.432 167.779 176.61 168.187 175.926C168.595 175.242 169.153 174.72 169.861 174.36C170.569 174 171.367 173.82 172.255 173.82C173.143 173.82 173.941 174 174.649 174.36C175.357 174.72 175.915 175.242 176.323 175.926C176.731 176.61 176.935 177.432 176.935 178.392V178.68C176.935 179.64 176.731 180.462 176.323 181.146C175.915 181.83 175.357 182.352 174.649 182.712C173.941 183.072 173.143 183.252 172.255 183.252ZM172.255 181.236C172.951 181.236 173.527 181.014 173.983 180.57C174.439 180.114 174.667 179.466 174.667 178.626V178.446C174.667 177.606 174.439 176.964 173.983 176.52C173.539 176.064 172.963 175.836 172.255 175.836C171.559 175.836 170.983 176.064 170.527 176.52C170.071 176.964 169.843 177.606 169.843 178.446V178.626C169.843 179.466 170.071 180.114 170.527 180.57C170.983 181.014 171.559 181.236 172.255 181.236ZM181.801 183.252C181.165 183.252 180.595 183.144 180.091 182.928C179.587 182.7 179.185 182.376 178.885 181.956C178.597 181.524 178.453 181.002 178.453 180.39C178.453 179.778 178.597 179.268 178.885 178.86C179.185 178.44 179.593 178.128 180.109 177.924C180.637 177.708 181.237 177.6 181.909 177.6H184.357V177.096C184.357 176.676 184.225 176.334 183.961 176.07C183.697 175.794 183.277 175.656 182.701 175.656C182.137 175.656 181.717 175.788 181.441 176.052C181.165 176.304 180.985 176.634 180.901 177.042L178.813 176.34C178.957 175.884 179.185 175.47 179.497 175.098C179.821 174.714 180.247 174.408 180.775 174.18C181.315 173.94 181.969 173.82 182.737 173.82C183.913 173.82 184.843 174.114 185.527 174.702C186.211 175.29 186.553 176.142 186.553 177.258V180.588C186.553 180.948 186.721 181.128 187.057 181.128H187.777V183H186.265C185.821 183 185.455 182.892 185.167 182.676C184.879 182.46 184.735 182.172 184.735 181.812V181.794H184.393C184.345 181.938 184.237 182.13 184.069 182.37C183.901 182.598 183.637 182.802 183.277 182.982C182.917 183.162 182.425 183.252 181.801 183.252ZM182.197 181.416C182.833 181.416 183.349 181.242 183.745 180.894C184.153 180.534 184.357 180.06 184.357 179.472V179.292H182.071C181.651 179.292 181.321 179.382 181.081 179.562C180.841 179.742 180.721 179.994 180.721 180.318C180.721 180.642 180.847 180.906 181.099 181.11C181.351 181.314 181.717 181.416 182.197 181.416ZM189.435 183V170.4H191.703V183H189.435ZM198.786 183V174.072H201.018V175.242H201.342C201.486 174.93 201.756 174.636 202.152 174.36C202.548 174.072 203.148 173.928 203.952 173.928C204.648 173.928 205.254 174.09 205.77 174.414C206.298 174.726 206.706 175.164 206.994 175.728C207.282 176.28 207.426 176.928 207.426 177.672V183H205.158V177.852C205.158 177.18 204.99 176.676 204.654 176.34C204.33 176.004 203.862 175.836 203.25 175.836C202.554 175.836 202.014 176.07 201.63 176.538C201.246 176.994 201.054 177.636 201.054 178.464V183H198.786ZM212.65 183.252C212.014 183.252 211.444 183.144 210.94 182.928C210.436 182.7 210.034 182.376 209.734 181.956C209.446 181.524 209.302 181.002 209.302 180.39C209.302 179.778 209.446 179.268 209.734 178.86C210.034 178.44 210.442 178.128 210.958 177.924C211.486 177.708 212.086 177.6 212.758 177.6H215.206V177.096C215.206 176.676 215.074 176.334 214.81 176.07C214.546 175.794 214.126 175.656 213.55 175.656C212.986 175.656 212.566 175.788 212.29 176.052C212.014 176.304 211.834 176.634 211.75 177.042L209.662 176.34C209.806 175.884 210.034 175.47 210.346 175.098C210.67 174.714 211.096 174.408 211.624 174.18C212.164 173.94 212.818 173.82 213.586 173.82C214.762 173.82 215.692 174.114 216.376 174.702C217.06 175.29 217.402 176.142 217.402 177.258V180.588C217.402 180.948 217.57 181.128 217.906 181.128H218.626V183H217.114C216.67 183 216.304 182.892 216.016 182.676C215.728 182.46 215.584 182.172 215.584 181.812V181.794H215.242C215.194 181.938 215.086 182.13 214.918 182.37C214.75 182.598 214.486 182.802 214.126 182.982C213.766 183.162 213.274 183.252 212.65 183.252ZM213.046 181.416C213.682 181.416 214.198 181.242 214.594 180.894C215.002 180.534 215.206 180.06 215.206 179.472V179.292H212.92C212.5 179.292 212.17 179.382 211.93 179.562C211.69 179.742 211.57 179.994 211.57 180.318C211.57 180.642 211.696 180.906 211.948 181.11C212.2 181.314 212.566 181.416 213.046 181.416ZM224.783 183V170.4H227.159V183H224.783ZM229.601 183V174.072H231.833V175.242H232.157C232.301 174.93 232.571 174.636 232.967 174.36C233.363 174.072 233.963 173.928 234.767 173.928C235.463 173.928 236.069 174.09 236.585 174.414C237.113 174.726 237.521 175.164 237.809 175.728C238.097 176.28 238.241 176.928 238.241 177.672V183H235.973V177.852C235.973 177.18 235.805 176.676 235.469 176.34C235.145 176.004 234.677 175.836 234.065 175.836C233.369 175.836 232.829 176.07 232.445 176.538C232.061 176.994 231.869 177.636 231.869 178.464V183H229.601ZM243.867 183C243.279 183 242.799 182.82 242.427 182.46C242.067 182.088 241.887 181.596 241.887 180.984V175.944H239.655V174.072H241.887V171.3H244.155V174.072H246.603V175.944H244.155V180.588C244.155 180.948 244.323 181.128 244.659 181.128H246.387V183H243.867ZM252.407 183.252C251.519 183.252 250.733 183.066 250.049 182.694C249.377 182.31 248.849 181.776 248.465 181.092C248.093 180.396 247.907 179.58 247.907 178.644V178.428C247.907 177.492 248.093 176.682 248.465 175.998C248.837 175.302 249.359 174.768 250.031 174.396C250.703 174.012 251.483 173.82 252.371 173.82C253.247 173.82 254.009 174.018 254.657 174.414C255.305 174.798 255.809 175.338 256.169 176.034C256.529 176.718 256.709 177.516 256.709 178.428V179.202H250.211C250.235 179.814 250.463 180.312 250.895 180.696C251.327 181.08 251.855 181.272 252.479 181.272C253.115 181.272 253.583 181.134 253.883 180.858C254.183 180.582 254.411 180.276 254.567 179.94L256.421 180.912C256.253 181.224 256.007 181.566 255.683 181.938C255.371 182.298 254.951 182.61 254.423 182.874C253.895 183.126 253.223 183.252 252.407 183.252ZM250.229 177.51H254.405C254.357 176.994 254.147 176.58 253.775 176.268C253.415 175.956 252.941 175.8 252.353 175.8C251.741 175.8 251.255 175.956 250.895 176.268C250.535 176.58 250.313 176.994 250.229 177.51ZM258.728 183V174.072H260.96V175.08H261.284C261.416 174.72 261.632 174.456 261.932 174.288C262.244 174.12 262.604 174.036 263.012 174.036H264.092V176.052H262.976C262.4 176.052 261.926 176.208 261.554 176.52C261.182 176.82 260.996 177.288 260.996 177.924V183H258.728ZM265.864 183V174.072H268.096V175.242H268.42C268.564 174.93 268.834 174.636 269.23 174.36C269.626 174.072 270.226 173.928 271.03 173.928C271.726 173.928 272.332 174.09 272.848 174.414C273.376 174.726 273.784 175.164 274.072 175.728C274.36 176.28 274.504 176.928 274.504 177.672V183H272.236V177.852C272.236 177.18 272.068 176.676 271.732 176.34C271.408 176.004 270.94 175.836 270.328 175.836C269.632 175.836 269.092 176.07 268.708 176.538C268.324 176.994 268.132 177.636 268.132 178.464V183H265.864ZM281.024 183.252C280.136 183.252 279.35 183.066 278.666 182.694C277.994 182.31 277.466 181.776 277.082 181.092C276.71 180.396 276.524 179.58 276.524 178.644V178.428C276.524 177.492 276.71 176.682 277.082 175.998C277.454 175.302 277.976 174.768 278.648 174.396C279.32 174.012 280.1 173.82 280.988 173.82C281.864 173.82 282.626 174.018 283.274 174.414C283.922 174.798 284.426 175.338 284.786 176.034C285.146 176.718 285.326 177.516 285.326 178.428V179.202H278.828C278.852 179.814 279.08 180.312 279.512 180.696C279.944 181.08 280.472 181.272 281.096 181.272C281.732 181.272 282.2 181.134 282.5 180.858C282.8 180.582 283.028 180.276 283.184 179.94L285.038 180.912C284.87 181.224 284.624 181.566 284.3 181.938C283.988 182.298 283.568 182.61 283.04 182.874C282.512 183.126 281.84 183.252 281.024 183.252ZM278.846 177.51H283.022C282.974 176.994 282.764 176.58 282.392 176.268C282.032 175.956 281.558 175.8 280.97 175.8C280.358 175.8 279.872 175.956 279.512 176.268C279.152 176.58 278.93 176.994 278.846 177.51ZM290.466 183C289.878 183 289.398 182.82 289.026 182.46C288.666 182.088 288.486 181.596 288.486 180.984V175.944H286.254V174.072H288.486V171.3H290.754V174.072H293.202V175.944H290.754V180.588C290.754 180.948 290.922 181.128 291.258 181.128H292.986V183H290.466Z" fill="white"/>
<circle cx="161.5" cy="110.5" r="32" fill="white" fill-opacity="0.15" stroke="#7327FF"/>
<path d="M161.5 91C157.511 91 154.825 92.4372 152.415 93.6338C150.005 94.8304 147.817 95.8623 143.773 95.8623H142V97.4831C142 109.994 146.626 118.135 151.307 123.061C155.988 127.987 160.835 129.797 160.835 129.797L161.5 130L162.165 129.797C162.165 129.797 167.012 128.025 171.693 123.112C176.374 118.199 181 110.038 181 97.4831V95.8623H179.227C175.204 95.8623 172.995 94.8304 170.585 93.6338C168.175 92.4372 165.489 91 161.5 91ZM161.5 94.2416C164.602 94.2416 166.382 95.2356 168.868 96.4701C170.966 97.5148 173.75 98.5151 177.344 98.8506C177.004 109.816 173.037 116.787 169.034 120.984C165.406 124.789 162.359 126.056 161.5 126.404C160.634 126.049 157.594 124.751 153.966 120.934C149.963 116.724 145.996 109.766 145.656 98.8506C149.264 98.5151 152.034 97.5148 154.132 96.4701C156.618 95.2356 158.398 94.2416 161.5 94.2416Z" fill="#7327FF"/>
</g>
<rect x="1" y="1" width="321" height="254" stroke="#7327FF" stroke-width="2"/>
<defs>
<clipPath id="clip0_8_4">
<rect width="323" height="256" fill="white"/>
</clipPath>
</defs>
</svg>
