<svg width="323" height="256" viewBox="0 0 323 256" fill="none" xmlns="http://www.w3.org/2000/svg">
<g clip-path="url(#clip0_8_199)">
<rect width="323" height="256" fill="#201E21"/>
<g opacity="0.5">
<path d="M0.950989 0.00012207V16.0001L10.6714 0.00012207H0.950989Z" fill="#7327FF"/>
<path d="M20.8547 0.00012207L0.950989 32.0002V56.0001L35.2036 0.00012207H20.8547Z" fill="#7327FF"/>
<path d="M25.0209 56.0001H10.6718L44.9245 0.00012207H59.2736L25.0209 56.0001Z" fill="#7327FF"/>
<path d="M49.5524 56.0001H35.2032L69.456 0.00012207H83.805L49.5524 56.0001Z" fill="#7327FF"/>
<path d="M73.6227 56.0001H59.2736L93.5262 0.00012207H107.875L73.6227 56.0001Z" fill="#7327FF"/>
<path d="M98.1541 56.0001H83.805L117.595 0.00012207H132.407L98.1541 56.0001Z" fill="#7327FF"/>
<path d="M122.224 56.0001H107.875L142.128 0.00012207H156.477L122.224 56.0001Z" fill="#7327FF"/>
<path d="M146.756 56.0001H132.407L166.197 0.00012207H180.546L146.756 56.0001Z" fill="#7327FF"/>
<path d="M170.826 56.0001H156.477L190.73 0.00012207H205.079L170.826 56.0001Z" fill="#7327FF"/>
<path d="M195.357 56.0001H180.545L214.798 0.00012207H229.147L195.357 56.0001Z" fill="#7327FF"/>
<path d="M219.428 56.0001H205.079L239.332 0.00012207H253.681L219.428 56.0001Z" fill="#7327FF"/>
<path d="M243.496 56.0001H229.147L263.4 0.00012207H277.749L243.496 56.0001Z" fill="#7327FF"/>
<path d="M287.47 0.00012207L253.681 56.0001H268.03L293.488 14.1178V0.00012207H287.47Z" fill="#7327FF"/>
<path d="M277.749 55.9997H292.098L293.486 53.6467V30.1173L277.749 55.9997Z" fill="#7327FF"/>
</g>
<path d="M-208.466 43.2006C-212.171 48.2006 -217.138 51 -222.312 51H-236L-210.287 15.3866C-205.949 9.37879 -200.065 6 -193.928 6H-180.908L-208.466 43.2006ZM-145.413 6H-158.432C-164.57 6 -170.454 9.37392 -174.792 15.3866L-200.505 51H-186.817C-181.643 51 -176.676 48.2006 -172.971 43.2006L-145.413 6ZM-109.917 6H-122.937C-129.074 6 -134.959 9.37392 -139.296 15.3866L-165.009 51H-151.321C-146.147 51 -141.18 48.2006 -137.475 43.2006L-109.917 6ZM-74.4218 6H-87.4417C-93.579 6 -99.4633 9.37392 -103.801 15.3866L-129.514 51H-115.826C-110.652 51 -105.685 48.2006 -101.98 43.2006L-74.4218 6ZM-38.9264 6H-51.9463C-58.0801 6 -63.9679 9.37392 -68.3055 15.3866L-94.0184 51H-80.3307C-75.1564 51 -70.1896 48.2006 -66.4847 43.2006L-38.9264 6ZM-3.43097 6H-16.4509C-22.5847 6 -28.469 9.37392 -32.8101 15.3866L-58.523 51H-44.8353C-39.6611 51 -34.6942 48.2006 -30.9893 43.2006L-3.43097 6ZM32.0644 6H19.0445C12.9071 6 7.02291 9.37392 2.68529 15.3866L-23.0276 51H-9.33981C-4.1656 51 0.801227 48.2006 4.50613 43.2006L32.0644 6ZM67.5598 6H54.5399C48.4025 6 42.5183 9.37392 38.1807 15.3866L12.4678 51H26.1555C31.3297 51 36.2966 48.2006 40.0015 43.2006L67.5598 6ZM103.055 6H90.0353C83.8979 6 78.0137 9.37392 73.6761 15.3866L47.9632 51H61.6509C66.8251 51 71.792 48.2006 75.4969 43.2006L103.055 6ZM138.551 6H125.531C119.397 6 113.509 9.37392 109.172 15.3866L83.4586 51H97.1464C102.321 51 107.287 48.2006 110.992 43.2006L138.551 6ZM174.046 6H161.026C154.892 6 149.008 9.37392 144.667 15.3866L118.954 51H132.642C137.816 51 142.783 48.2006 146.488 43.2006L174.046 6ZM209.541 6H196.522C190.384 6 184.5 9.37392 180.162 15.3866L154.449 51H168.137C173.311 51 178.278 48.2006 181.983 43.2006L209.541 6ZM245.037 6H232.017C225.88 6 219.995 9.37392 215.658 15.3866L189.945 51H203.633C208.807 51 213.774 48.2006 217.478 43.2006L245.037 6ZM280.532 6H267.512C261.375 6 255.491 9.37392 251.153 15.3866L225.44 51H239.128C244.302 51 249.269 48.2006 252.974 43.2006L280.532 6ZM316.028 6H303.008C296.874 6 290.986 9.37392 286.648 15.3866L260.936 51H274.623C279.798 51 284.764 48.2006 288.469 43.2006L316.028 6ZM351.523 6H338.503C332.369 6 326.485 9.37392 322.144 15.3866L296.431 51H310.119C315.293 51 320.26 48.2006 323.965 43.2006L351.523 6ZM387.018 6H373.999C367.861 6 361.977 9.37392 357.639 15.3866L331.926 51H345.614C350.788 51 355.755 48.2006 359.46 43.2006L387.018 6ZM422.514 6H409.494C403.357 6 397.472 9.37392 393.135 15.3866L367.422 51H381.109C386.284 51 391.251 48.2006 394.956 43.2006L422.514 6ZM458.009 6H444.989C438.852 6 432.968 9.37392 428.63 15.3866L402.917 51H416.605C421.779 51 426.746 48.2006 430.451 43.2006L458.009 6ZM493.505 6H480.485C474.347 6 468.463 9.37392 464.125 15.3866L438.413 51H452.1C457.274 51 462.241 48.2006 465.946 43.2006L493.505 6ZM529 6H515.98C509.846 6 503.958 9.37392 499.621 15.3866L473.908 51H487.596C492.77 51 497.737 48.2006 501.442 43.2006L529 6Z" fill="#D9D9D9"/>
<line x1="100.354" y1="228.471" x2="90.3536" y2="238.471" stroke="#D9D9D9"/>
<line x1="60.3536" y1="228.471" x2="50.3536" y2="238.471" stroke="#D9D9D9"/>
<line x1="90.3536" y1="228.471" x2="80.3536" y2="238.471" stroke="#D9D9D9"/>
<line x1="50.3536" y1="228.471" x2="40.3536" y2="238.471" stroke="#D9D9D9"/>
<line x1="80.3536" y1="228.471" x2="70.3536" y2="238.471" stroke="#D9D9D9"/>
<line x1="40.3536" y1="228.471" x2="30.3536" y2="238.471" stroke="#D9D9D9"/>
<line x1="70.3536" y1="228.471" x2="60.3536" y2="238.471" stroke="#D9D9D9"/>
<line x1="30.3536" y1="228.471" x2="20.3536" y2="238.471" stroke="#D9D9D9"/>
<rect x="269" y="238.117" width="7" height="24" transform="rotate(-90 269 238.117)" fill="#D9D9D9"/>
<path d="M115.33 183.252C113.77 183.252 112.534 182.82 111.622 181.956C110.71 181.08 110.254 179.832 110.254 178.212V175.188C110.254 173.568 110.71 172.326 111.622 171.462C112.534 170.586 113.77 170.148 115.33 170.148C116.878 170.148 118.072 170.574 118.912 171.426C119.764 172.266 120.19 173.424 120.19 174.9V175.008H117.85V174.828C117.85 174.084 117.64 173.472 117.22 172.992C116.812 172.512 116.182 172.272 115.33 172.272C114.49 172.272 113.83 172.53 113.35 173.046C112.87 173.562 112.63 174.264 112.63 175.152V178.248C112.63 179.124 112.87 179.826 113.35 180.354C113.83 180.87 114.49 181.128 115.33 181.128C116.182 181.128 116.812 180.888 117.22 180.408C117.64 179.916 117.85 179.304 117.85 178.572V178.248H120.19V178.5C120.19 179.976 119.764 181.14 118.912 181.992C118.072 182.832 116.878 183.252 115.33 183.252ZM122.198 183V174.072H124.43V175.08H124.754C124.886 174.72 125.102 174.456 125.402 174.288C125.714 174.12 126.074 174.036 126.482 174.036H127.562V176.052H126.446C125.87 176.052 125.396 176.208 125.024 176.52C124.652 176.82 124.466 177.288 124.466 177.924V183H122.198ZM129.335 183V174.072H131.603V183H129.335ZM130.469 173.028C130.061 173.028 129.713 172.896 129.425 172.632C129.149 172.368 129.011 172.02 129.011 171.588C129.011 171.156 129.149 170.808 129.425 170.544C129.713 170.28 130.061 170.148 130.469 170.148C130.889 170.148 131.237 170.28 131.513 170.544C131.789 170.808 131.927 171.156 131.927 171.588C131.927 172.02 131.789 172.368 131.513 172.632C131.237 172.896 130.889 173.028 130.469 173.028ZM134.116 186.6V174.072H136.348V175.152H136.672C136.876 174.804 137.194 174.498 137.626 174.234C138.058 173.958 138.676 173.82 139.48 173.82C140.2 173.82 140.866 174 141.478 174.36C142.09 174.708 142.582 175.224 142.954 175.908C143.326 176.592 143.512 177.42 143.512 178.392V178.68C143.512 179.652 143.326 180.48 142.954 181.164C142.582 181.848 142.09 182.37 141.478 182.73C140.866 183.078 140.2 183.252 139.48 183.252C138.94 183.252 138.484 183.186 138.112 183.054C137.752 182.934 137.458 182.778 137.23 182.586C137.014 182.382 136.84 182.178 136.708 181.974H136.384V186.6H134.116ZM138.796 181.272C139.504 181.272 140.086 181.05 140.542 180.606C141.01 180.15 141.244 179.49 141.244 178.626V178.446C141.244 177.582 141.01 176.928 140.542 176.484C140.074 176.028 139.492 175.8 138.796 175.8C138.1 175.8 137.518 176.028 137.05 176.484C136.582 176.928 136.348 177.582 136.348 178.446V178.626C136.348 179.49 136.582 180.15 137.05 180.606C137.518 181.05 138.1 181.272 138.796 181.272ZM148.716 183C148.128 183 147.648 182.82 147.276 182.46C146.916 182.088 146.736 181.596 146.736 180.984V175.944H144.504V174.072H146.736V171.3H149.004V174.072H151.452V175.944H149.004V180.588C149.004 180.948 149.172 181.128 149.508 181.128H151.236V183H148.716ZM157.437 183.252C156.549 183.252 155.751 183.072 155.043 182.712C154.335 182.352 153.777 181.83 153.369 181.146C152.961 180.462 152.757 179.64 152.757 178.68V178.392C152.757 177.432 152.961 176.61 153.369 175.926C153.777 175.242 154.335 174.72 155.043 174.36C155.751 174 156.549 173.82 157.437 173.82C158.325 173.82 159.123 174 159.831 174.36C160.539 174.72 161.097 175.242 161.505 175.926C161.913 176.61 162.117 177.432 162.117 178.392V178.68C162.117 179.64 161.913 180.462 161.505 181.146C161.097 181.83 160.539 182.352 159.831 182.712C159.123 183.072 158.325 183.252 157.437 183.252ZM157.437 181.236C158.133 181.236 158.709 181.014 159.165 180.57C159.621 180.114 159.849 179.466 159.849 178.626V178.446C159.849 177.606 159.621 176.964 159.165 176.52C158.721 176.064 158.145 175.836 157.437 175.836C156.741 175.836 156.165 176.064 155.709 176.52C155.253 176.964 155.025 177.606 155.025 178.446V178.626C155.025 179.466 155.253 180.114 155.709 180.57C156.165 181.014 156.741 181.236 157.437 181.236ZM163.778 178.572V178.284C163.778 177.348 163.964 176.55 164.336 175.89C164.708 175.218 165.2 174.708 165.812 174.36C166.436 174 167.114 173.82 167.846 173.82C168.662 173.82 169.28 173.964 169.7 174.252C170.12 174.54 170.426 174.84 170.618 175.152H170.942V174.072H173.174V184.584C173.174 185.196 172.994 185.682 172.634 186.042C172.274 186.414 171.794 186.6 171.194 186.6H165.218V184.62H170.402C170.738 184.62 170.906 184.44 170.906 184.08V181.758H170.582C170.462 181.95 170.294 182.148 170.078 182.352C169.862 182.544 169.574 182.706 169.214 182.838C168.854 182.97 168.398 183.036 167.846 183.036C167.114 183.036 166.436 182.862 165.812 182.514C165.2 182.154 164.708 181.644 164.336 180.984C163.964 180.312 163.778 179.508 163.778 178.572ZM168.494 181.056C169.19 181.056 169.772 180.834 170.24 180.39C170.708 179.946 170.942 179.322 170.942 178.518V178.338C170.942 177.522 170.708 176.898 170.24 176.466C169.784 176.022 169.202 175.8 168.494 175.8C167.798 175.8 167.216 176.022 166.748 176.466C166.28 176.898 166.046 177.522 166.046 178.338V178.518C166.046 179.322 166.28 179.946 166.748 180.39C167.216 180.834 167.798 181.056 168.494 181.056ZM175.689 183V174.072H177.921V175.08H178.245C178.377 174.72 178.593 174.456 178.893 174.288C179.205 174.12 179.565 174.036 179.973 174.036H181.053V176.052H179.937C179.361 176.052 178.887 176.208 178.515 176.52C178.143 176.82 177.957 177.288 177.957 177.924V183H175.689ZM185.386 183.252C184.75 183.252 184.18 183.144 183.676 182.928C183.172 182.7 182.77 182.376 182.47 181.956C182.182 181.524 182.038 181.002 182.038 180.39C182.038 179.778 182.182 179.268 182.47 178.86C182.77 178.44 183.178 178.128 183.694 177.924C184.222 177.708 184.822 177.6 185.494 177.6H187.942V177.096C187.942 176.676 187.81 176.334 187.546 176.07C187.282 175.794 186.862 175.656 186.286 175.656C185.722 175.656 185.302 175.788 185.026 176.052C184.75 176.304 184.57 176.634 184.486 177.042L182.398 176.34C182.542 175.884 182.77 175.47 183.082 175.098C183.406 174.714 183.832 174.408 184.36 174.18C184.9 173.94 185.554 173.82 186.322 173.82C187.498 173.82 188.428 174.114 189.112 174.702C189.796 175.29 190.138 176.142 190.138 177.258V180.588C190.138 180.948 190.306 181.128 190.642 181.128H191.362V183H189.85C189.406 183 189.04 182.892 188.752 182.676C188.464 182.46 188.32 182.172 188.32 181.812V181.794H187.978C187.93 181.938 187.822 182.13 187.654 182.37C187.486 182.598 187.222 182.802 186.862 182.982C186.502 183.162 186.01 183.252 185.386 183.252ZM185.782 181.416C186.418 181.416 186.934 181.242 187.33 180.894C187.738 180.534 187.942 180.06 187.942 179.472V179.292H185.656C185.236 179.292 184.906 179.382 184.666 179.562C184.426 179.742 184.306 179.994 184.306 180.318C184.306 180.642 184.432 180.906 184.684 181.11C184.936 181.314 185.302 181.416 185.782 181.416ZM193.846 183V175.944H191.578V174.072H193.846V172.416C193.846 171.804 194.026 171.318 194.386 170.958C194.758 170.586 195.238 170.4 195.826 170.4H197.986V172.272H196.618C196.282 172.272 196.114 172.452 196.114 172.812V174.072H199.714V175.944H196.114V183H193.846ZM199.714 183V174.072H201.982V183H199.714ZM200.848 173.1C200.44 173.1 200.092 172.968 199.804 172.704C199.528 172.44 199.39 172.092 199.39 171.66C199.39 171.228 199.528 170.88 199.804 170.616C200.092 170.352 200.44 170.22 200.848 170.22C201.268 170.22 201.616 170.352 201.892 170.616C202.168 170.88 202.306 171.228 202.306 171.66C202.306 172.092 202.168 172.44 201.892 172.704C201.616 172.968 201.268 173.1 200.848 173.1ZM207.271 183.252C206.635 183.252 206.065 183.144 205.561 182.928C205.057 182.7 204.655 182.376 204.355 181.956C204.067 181.524 203.923 181.002 203.923 180.39C203.923 179.778 204.067 179.268 204.355 178.86C204.655 178.44 205.063 178.128 205.579 177.924C206.107 177.708 206.707 177.6 207.379 177.6H209.827V177.096C209.827 176.676 209.695 176.334 209.431 176.07C209.167 175.794 208.747 175.656 208.171 175.656C207.607 175.656 207.187 175.788 206.911 176.052C206.635 176.304 206.455 176.634 206.371 177.042L204.283 176.34C204.427 175.884 204.655 175.47 204.967 175.098C205.291 174.714 205.717 174.408 206.245 174.18C206.785 173.94 207.439 173.82 208.207 173.82C209.383 173.82 210.313 174.114 210.997 174.702C211.681 175.29 212.023 176.142 212.023 177.258V180.588C212.023 180.948 212.191 181.128 212.527 181.128H213.247V183H211.735C211.291 183 210.925 182.892 210.637 182.676C210.349 182.46 210.205 182.172 210.205 181.812V181.794H209.863C209.815 181.938 209.707 182.13 209.539 182.37C209.371 182.598 209.107 182.802 208.747 182.982C208.387 183.162 207.895 183.252 207.271 183.252ZM207.667 181.416C208.303 181.416 208.819 181.242 209.215 180.894C209.623 180.534 209.827 180.06 209.827 179.472V179.292H207.541C207.121 179.292 206.791 179.382 206.551 179.562C206.311 179.742 206.191 179.994 206.191 180.318C206.191 180.642 206.317 180.906 206.569 181.11C206.821 181.314 207.187 181.416 207.667 181.416Z" fill="white"/>
<circle cx="161.5" cy="110.5" r="32" fill="white" fill-opacity="0.15" stroke="#7327FF"/>
<path d="M161.5 90.5938C155.614 90.5938 150.781 95.4268 150.781 101.312V105.906H146.188V130.406H176.812V105.906H172.219V101.312C172.219 95.4268 167.386 90.5938 161.5 90.5938ZM161.5 93.6562C165.717 93.6562 169.156 97.0956 169.156 101.312V105.906H153.844V101.312C153.844 97.0956 157.283 93.6562 161.5 93.6562ZM149.25 108.969H173.75V127.344H149.25V108.969Z" fill="#7327FF"/>
</g>
<rect x="1" y="1" width="321" height="254" stroke="#7327FF" stroke-width="2"/>
<defs>
<clipPath id="clip0_8_199">
<rect width="323" height="256" fill="white"/>
</clipPath>
</defs>
</svg>
