<svg width="323" height="256" viewBox="0 0 323 256" fill="none" xmlns="http://www.w3.org/2000/svg">
<g clip-path="url(#clip0_8_4)">
<rect width="323" height="256" fill="#201E21"/>
<g opacity="0.5">
<path d="M-4.18266 0.00012207V17.1429L6.23202 0.00012207H-4.18266Z" fill="#7327FF"/>
<path d="M17.1427 0.00012207L-4.18266 34.2858V60L32.5165 0.00012207H17.1427Z" fill="#7327FF"/>
<path d="M21.6065 60H6.23247L42.9317 0.00012207H58.3057L21.6065 60Z" fill="#7327FF"/>
<path d="M47.8901 60H32.5161L69.2154 0.00012207H84.5893L47.8901 60Z" fill="#7327FF"/>
<path d="M73.6797 60H58.3057L95.0049 0.00012207H110.379L73.6797 60Z" fill="#7327FF"/>
<path d="M99.9634 60H84.5893L120.793 0.00012207H136.663L99.9634 60Z" fill="#7327FF"/>
<path d="M125.753 60H110.379L147.078 0.00012207H162.452L125.753 60Z" fill="#7327FF"/>
<path d="M152.037 60H136.663L172.866 0.00012207H188.24L152.037 60Z" fill="#7327FF"/>
<path d="M177.826 60H162.452L199.151 0.00012207H214.525L177.826 60Z" fill="#7327FF"/>
<path d="M204.109 60H188.239L224.939 0.00012207H240.313L204.109 60Z" fill="#7327FF"/>
<path d="M229.899 60H214.525L251.225 0.00012207H266.599L229.899 60Z" fill="#7327FF"/>
<path d="M255.687 60H240.313L277.012 0.00012207H292.386L255.687 60Z" fill="#7327FF"/>
<path d="M302.802 0.00012207L266.599 60H281.973L309.249 15.1262V0.00012207H302.802Z" fill="#7327FF"/>
<path d="M292.386 59.9996H307.76L309.248 57.4786V32.2686L292.386 59.9996Z" fill="#7327FF"/>
</g>
<path d="M-208.466 46.5073C-212.171 51.9517 -217.138 55 -222.312 55H-236L-210.287 16.2209C-205.949 9.67912 -200.065 6 -193.928 6H-180.908L-208.466 46.5073ZM-145.413 6H-158.432C-164.57 6 -170.454 9.67382 -174.792 16.2209L-200.505 55H-186.817C-181.643 55 -176.676 51.9517 -172.971 46.5073L-145.413 6ZM-109.917 6H-122.937C-129.074 6 -134.959 9.67382 -139.296 16.2209L-165.009 55H-151.321C-146.147 55 -141.18 51.9517 -137.475 46.5073L-109.917 6ZM-74.4218 6H-87.4417C-93.579 6 -99.4633 9.67382 -103.801 16.2209L-129.514 55H-115.826C-110.652 55 -105.685 51.9517 -101.98 46.5073L-74.4218 6ZM-38.9264 6H-51.9463C-58.0801 6 -63.9679 9.67382 -68.3055 16.2209L-94.0184 55H-80.3307C-75.1564 55 -70.1896 51.9517 -66.4847 46.5073L-38.9264 6ZM-3.43097 6H-16.4509C-22.5847 6 -28.469 9.67382 -32.8101 16.2209L-58.523 55H-44.8353C-39.661 55 -34.6942 51.9517 -30.9893 46.5073L-3.43097 6ZM32.0644 6H19.0445C12.9071 6 7.02291 9.67382 2.68529 16.2209L-23.0276 55H-9.33982C-4.1656 55 0.801226 51.9517 4.50613 46.5073L32.0644 6ZM67.5598 6H54.5399C48.4025 6 42.5184 9.67382 38.1807 16.2209L12.4678 55H26.1555C31.3297 55 36.2966 51.9517 40.0015 46.5073L67.5598 6ZM103.055 6H90.0353C83.8979 6 78.0137 9.67382 73.6761 16.2209L47.9632 55H61.6509C66.8251 55 71.792 51.9517 75.4969 46.5073L103.055 6ZM138.551 6H125.531C119.397 6 113.509 9.67382 109.172 16.2209L83.4586 55H97.1464C102.321 55 107.287 51.9517 110.992 46.5073L138.551 6ZM174.046 6H161.026C154.892 6 149.008 9.67382 144.667 16.2209L118.954 55H132.642C137.816 55 142.783 51.9517 146.488 46.5073L174.046 6ZM209.541 6H196.522C190.384 6 184.5 9.67382 180.162 16.2209L154.449 55H168.137C173.311 55 178.278 51.9517 181.983 46.5073L209.541 6ZM245.037 6H232.017C225.88 6 219.995 9.67382 215.658 16.2209L189.945 55H203.633C208.807 55 213.774 51.9517 217.478 46.5073L245.037 6ZM280.532 6H267.512C261.375 6 255.491 9.67382 251.153 16.2209L225.44 55H239.128C244.302 55 249.269 51.9517 252.974 46.5073L280.532 6ZM316.028 6H303.008C296.874 6 290.986 9.67382 286.648 16.2209L260.936 55H274.623C279.798 55 284.764 51.9517 288.469 46.5073L316.028 6ZM351.523 6H338.503C332.369 6 326.485 9.67382 322.144 16.2209L296.431 55H310.119C315.293 55 320.26 51.9517 323.965 46.5073L351.523 6ZM387.018 6H373.999C367.861 6 361.977 9.67382 357.639 16.2209L331.926 55H345.614C350.788 55 355.755 51.9517 359.46 46.5073L387.018 6ZM422.514 6H409.494C403.357 6 397.472 9.67382 393.135 16.2209L367.422 55H381.11C386.284 55 391.251 51.9517 394.955 46.5073L422.514 6ZM458.009 6H444.989C438.852 6 432.968 9.67382 428.63 16.2209L402.917 55H416.605C421.779 55 426.746 51.9517 430.451 46.5073L458.009 6ZM493.505 6H480.485C474.347 6 468.463 9.67382 464.125 16.2209L438.413 55H452.1C457.275 55 462.241 51.9517 465.946 46.5073L493.505 6ZM529 6H515.98C509.846 6 503.958 9.67382 499.621 16.2209L473.908 55H487.596C492.77 55 497.737 51.9517 501.442 46.5073L529 6Z" fill="#D9D9D9"/>
<line x1="100.354" y1="228.471" x2="90.3536" y2="238.471" stroke="#D9D9D9"/>
<line x1="60.3536" y1="228.471" x2="50.3536" y2="238.471" stroke="#D9D9D9"/>
<line x1="90.3536" y1="228.471" x2="80.3536" y2="238.471" stroke="#D9D9D9"/>
<line x1="50.3536" y1="228.471" x2="40.3536" y2="238.471" stroke="#D9D9D9"/>
<line x1="80.3536" y1="228.471" x2="70.3536" y2="238.471" stroke="#D9D9D9"/>
<line x1="40.3536" y1="228.471" x2="30.3536" y2="238.471" stroke="#D9D9D9"/>
<line x1="70.3536" y1="228.471" x2="60.3536" y2="238.471" stroke="#D9D9D9"/>
<line x1="30.3536" y1="228.471" x2="20.3536" y2="238.471" stroke="#D9D9D9"/>
<rect x="269" y="238.117" width="7" height="24" transform="rotate(-90 269 238.117)" fill="#D9D9D9"/>
<path d="M33.2866 183V170.4H35.6626V183H33.2866ZM38.1047 183V174.072H40.3367V175.242H40.6607C40.8047 174.93 41.0747 174.636 41.4707 174.36C41.8667 174.072 42.4667 173.928 43.2707 173.928C43.9667 173.928 44.5727 174.09 45.0887 174.414C45.6167 174.726 46.0247 175.164 46.3127 175.728C46.6007 176.28 46.7447 176.928 46.7447 177.672V183H44.4767V177.852C44.4767 177.18 44.3087 176.676 43.9727 176.34C43.6487 176.004 43.1807 175.836 42.5687 175.836C41.8727 175.836 41.3327 176.07 40.9487 176.538C40.5647 176.994 40.3727 177.636 40.3727 178.464V183H38.1047ZM52.3704 183C51.7824 183 51.3024 182.82 50.9304 182.46C50.5704 182.088 50.3904 181.596 50.3904 180.984V175.944H48.1584V174.072H50.3904V171.3H52.6584V174.072H55.1064V175.944H52.6584V180.588C52.6584 180.948 52.8264 181.128 53.1624 181.128H54.8904V183H52.3704ZM57.1594 183V174.072H59.3914V175.08H59.7154C59.8474 174.72 60.0634 174.456 60.3634 174.288C60.6754 174.12 61.0354 174.036 61.4434 174.036H62.5234V176.052H61.4074C60.8314 176.052 60.3574 176.208 59.9854 176.52C59.6134 176.82 59.4274 177.288 59.4274 177.924V183H57.1594ZM68.2277 183.252C67.3397 183.252 66.5417 183.072 65.8337 182.712C65.1257 182.352 64.5677 181.83 64.1597 181.146C63.7517 180.462 63.5477 179.64 63.5477 178.68V178.392C63.5477 177.432 63.7517 176.61 64.1597 175.926C64.5677 175.242 65.1257 174.72 65.8337 174.36C66.5417 174 67.3397 173.82 68.2277 173.82C69.1157 173.82 69.9137 174 70.6217 174.36C71.3297 174.72 71.8877 175.242 72.2957 175.926C72.7037 176.61 72.9077 177.432 72.9077 178.392V178.68C72.9077 179.64 72.7037 180.462 72.2957 181.146C71.8877 181.83 71.3297 182.352 70.6217 182.712C69.9137 183.072 69.1157 183.252 68.2277 183.252ZM68.2277 181.236C68.9237 181.236 69.4997 181.014 69.9557 180.57C70.4117 180.114 70.6397 179.466 70.6397 178.626V178.446C70.6397 177.606 70.4117 176.964 69.9557 176.52C69.5117 176.064 68.9357 175.836 68.2277 175.836C67.5317 175.836 66.9557 176.064 66.4997 176.52C66.0437 176.964 65.8157 177.606 65.8157 178.446V178.626C65.8157 179.466 66.0437 180.114 66.4997 180.57C66.9557 181.014 67.5317 181.236 68.2277 181.236ZM78.6012 183.252C77.8932 183.252 77.2272 183.078 76.6032 182.73C75.9912 182.37 75.4992 181.848 75.1272 181.164C74.7552 180.48 74.5692 179.652 74.5692 178.68V178.392C74.5692 177.42 74.7552 176.592 75.1272 175.908C75.4992 175.224 75.9912 174.708 76.6032 174.36C77.2152 174 77.8812 173.82 78.6012 173.82C79.1412 173.82 79.5912 173.886 79.9512 174.018C80.3232 174.138 80.6232 174.294 80.8512 174.486C81.0792 174.678 81.2532 174.882 81.3732 175.098H81.6972V170.4H83.9652V183H81.7332V181.92H81.4092C81.2052 182.256 80.8872 182.562 80.4552 182.838C80.0352 183.114 79.4172 183.252 78.6012 183.252ZM79.2852 181.272C79.9812 181.272 80.5632 181.05 81.0312 180.606C81.4992 180.15 81.7332 179.49 81.7332 178.626V178.446C81.7332 177.582 81.4992 176.928 81.0312 176.484C80.5752 176.028 79.9932 175.8 79.2852 175.8C78.5892 175.8 78.0072 176.028 77.5392 176.484C77.0712 176.928 76.8372 177.582 76.8372 178.446V178.626C76.8372 179.49 77.0712 180.15 77.5392 180.606C78.0072 181.05 78.5892 181.272 79.2852 181.272ZM89.8817 183.144C89.1857 183.144 88.5737 182.988 88.0457 182.676C87.5297 182.352 87.1277 181.908 86.8397 181.344C86.5517 180.78 86.4077 180.132 86.4077 179.4V174.072H88.6757V179.22C88.6757 179.892 88.8377 180.396 89.1617 180.732C89.4977 181.068 89.9717 181.236 90.5837 181.236C91.2797 181.236 91.8197 181.008 92.2037 180.552C92.5877 180.084 92.7797 179.436 92.7797 178.608V174.072H95.0477V183H92.8157V181.83H92.4917C92.3477 182.13 92.0777 182.424 91.6817 182.712C91.2857 183 90.6857 183.144 89.8817 183.144ZM101.766 183.252C100.902 183.252 100.116 183.072 99.4075 182.712C98.7115 182.352 98.1595 181.83 97.7515 181.146C97.3435 180.462 97.1395 179.634 97.1395 178.662V178.41C97.1395 177.438 97.3435 176.61 97.7515 175.926C98.1595 175.242 98.7115 174.72 99.4075 174.36C100.116 174 100.902 173.82 101.766 173.82C102.618 173.82 103.35 173.97 103.962 174.27C104.574 174.57 105.066 174.984 105.438 175.512C105.822 176.028 106.074 176.616 106.194 177.276L103.998 177.744C103.95 177.384 103.842 177.06 103.674 176.772C103.506 176.484 103.266 176.256 102.954 176.088C102.654 175.92 102.276 175.836 101.82 175.836C101.364 175.836 100.95 175.938 100.578 176.142C100.218 176.334 99.9295 176.628 99.7135 177.024C99.5095 177.408 99.4075 177.882 99.4075 178.446V178.626C99.4075 179.19 99.5095 179.67 99.7135 180.066C99.9295 180.45 100.218 180.744 100.578 180.948C100.95 181.14 101.364 181.236 101.82 181.236C102.504 181.236 103.02 181.062 103.368 180.714C103.728 180.354 103.956 179.886 104.052 179.31L106.248 179.832C106.092 180.468 105.822 181.05 105.438 181.578C105.066 182.094 104.574 182.502 103.962 182.802C103.35 183.102 102.618 183.252 101.766 183.252ZM101.766 186.852C101.382 186.852 101.004 186.816 100.632 186.744C100.272 186.672 99.9595 186.594 99.6955 186.51L100.056 185.16C100.284 185.232 100.524 185.298 100.776 185.358C101.04 185.418 101.334 185.448 101.658 185.448C101.898 185.448 102.096 185.406 102.252 185.322C102.408 185.238 102.486 185.106 102.486 184.926C102.486 184.758 102.414 184.632 102.27 184.548C102.138 184.476 101.916 184.44 101.604 184.44H100.92L101.046 182.64H102.594L102.522 183.702C102.978 183.702 103.362 183.828 103.674 184.08C103.998 184.332 104.16 184.704 104.16 185.196C104.16 185.58 104.046 185.892 103.818 186.132C103.59 186.384 103.29 186.564 102.918 186.672C102.558 186.792 102.174 186.852 101.766 186.852ZM110.89 183.252C110.254 183.252 109.684 183.144 109.18 182.928C108.676 182.7 108.274 182.376 107.974 181.956C107.686 181.524 107.542 181.002 107.542 180.39C107.542 179.778 107.686 179.268 107.974 178.86C108.274 178.44 108.682 178.128 109.198 177.924C109.726 177.708 110.326 177.6 110.998 177.6H113.446V177.096C113.446 176.676 113.314 176.334 113.05 176.07C112.786 175.794 112.366 175.656 111.79 175.656C111.226 175.656 110.806 175.788 110.53 176.052C110.254 176.304 110.074 176.634 109.99 177.042L107.902 176.34C108.046 175.884 108.274 175.47 108.586 175.098C108.91 174.714 109.336 174.408 109.864 174.18C110.404 173.94 111.058 173.82 111.826 173.82C113.002 173.82 113.932 174.114 114.616 174.702C115.3 175.29 115.642 176.142 115.642 177.258V180.588C115.642 180.948 115.81 181.128 116.146 181.128H116.866V183H115.354C114.91 183 114.544 182.892 114.256 182.676C113.968 182.46 113.824 182.172 113.824 181.812V181.794H113.482C113.434 181.938 113.326 182.13 113.158 182.37C112.99 182.598 112.726 182.802 112.366 182.982C112.006 183.162 111.514 183.252 110.89 183.252ZM111.286 181.416C111.922 181.416 112.438 181.242 112.834 180.894C113.242 180.534 113.446 180.06 113.446 179.472V179.292H111.16C110.74 179.292 110.41 179.382 110.17 179.562C109.93 179.742 109.81 179.994 109.81 180.318C109.81 180.642 109.936 180.906 110.188 181.11C110.44 181.314 110.806 181.416 111.286 181.416ZM109.9 173.244L108.658 172.452L109.252 171.426C109.432 171.114 109.648 170.892 109.9 170.76C110.164 170.616 110.446 170.544 110.746 170.544C111.01 170.544 111.238 170.598 111.43 170.706C111.634 170.802 111.832 170.934 112.024 171.102C112.132 171.198 112.246 171.294 112.366 171.39C112.498 171.486 112.642 171.534 112.798 171.534C112.978 171.534 113.122 171.474 113.23 171.354C113.35 171.234 113.452 171.108 113.536 170.976L113.824 170.544L115.066 171.336L114.472 172.362C114.292 172.662 114.076 172.884 113.824 173.028C113.572 173.172 113.29 173.244 112.978 173.244C112.714 173.244 112.48 173.196 112.276 173.1C112.084 172.992 111.892 172.854 111.7 172.686C111.592 172.59 111.478 172.494 111.358 172.398C111.238 172.302 111.094 172.254 110.926 172.254C110.746 172.254 110.602 172.314 110.494 172.434C110.386 172.554 110.284 172.68 110.188 172.812L109.9 173.244ZM122.597 183.252C121.709 183.252 120.911 183.072 120.203 182.712C119.495 182.352 118.937 181.83 118.529 181.146C118.121 180.462 117.917 179.64 117.917 178.68V178.392C117.917 177.432 118.121 176.61 118.529 175.926C118.937 175.242 119.495 174.72 120.203 174.36C120.911 174 121.709 173.82 122.597 173.82C123.485 173.82 124.283 174 124.991 174.36C125.699 174.72 126.257 175.242 126.665 175.926C127.073 176.61 127.277 177.432 127.277 178.392V178.68C127.277 179.64 127.073 180.462 126.665 181.146C126.257 181.83 125.699 182.352 124.991 182.712C124.283 183.072 123.485 183.252 122.597 183.252ZM122.597 181.236C123.293 181.236 123.869 181.014 124.325 180.57C124.781 180.114 125.009 179.466 125.009 178.626V178.446C125.009 177.606 124.781 176.964 124.325 176.52C123.881 176.064 123.305 175.836 122.597 175.836C121.901 175.836 121.325 176.064 120.869 176.52C120.413 176.964 120.185 177.606 120.185 178.446V178.626C120.185 179.466 120.413 180.114 120.869 180.57C121.325 181.014 121.901 181.236 122.597 181.236ZM136.713 183.252C136.077 183.252 135.507 183.144 135.003 182.928C134.499 182.7 134.097 182.376 133.797 181.956C133.509 181.524 133.365 181.002 133.365 180.39C133.365 179.778 133.509 179.268 133.797 178.86C134.097 178.44 134.505 178.128 135.021 177.924C135.549 177.708 136.149 177.6 136.821 177.6H139.269V177.096C139.269 176.676 139.137 176.334 138.873 176.07C138.609 175.794 138.189 175.656 137.613 175.656C137.049 175.656 136.629 175.788 136.353 176.052C136.077 176.304 135.897 176.634 135.813 177.042L133.725 176.34C133.869 175.884 134.097 175.47 134.409 175.098C134.733 174.714 135.159 174.408 135.687 174.18C136.227 173.94 136.881 173.82 137.649 173.82C138.825 173.82 139.755 174.114 140.439 174.702C141.123 175.29 141.465 176.142 141.465 177.258V180.588C141.465 180.948 141.633 181.128 141.969 181.128H142.689V183H141.177C140.733 183 140.367 182.892 140.079 182.676C139.791 182.46 139.647 182.172 139.647 181.812V181.794H139.305C139.257 181.938 139.149 182.13 138.981 182.37C138.813 182.598 138.549 182.802 138.189 182.982C137.829 183.162 137.337 183.252 136.713 183.252ZM137.109 181.416C137.745 181.416 138.261 181.242 138.657 180.894C139.065 180.534 139.269 180.06 139.269 179.472V179.292H136.983C136.563 179.292 136.233 179.382 135.993 179.562C135.753 179.742 135.633 179.994 135.633 180.318C135.633 180.642 135.759 180.906 136.011 181.11C136.263 181.314 136.629 181.416 137.109 181.416ZM137.127 173.064L135.219 170.4H137.775L139.107 173.064H137.127ZM153.633 183.252C152.073 183.252 150.837 182.82 149.925 181.956C149.013 181.08 148.557 179.832 148.557 178.212V175.188C148.557 173.568 149.013 172.326 149.925 171.462C150.837 170.586 152.073 170.148 153.633 170.148C155.181 170.148 156.375 170.574 157.215 171.426C158.067 172.266 158.493 173.424 158.493 174.9V175.008H156.153V174.828C156.153 174.084 155.943 173.472 155.523 172.992C155.115 172.512 154.485 172.272 153.633 172.272C152.793 172.272 152.133 172.53 151.653 173.046C151.173 173.562 150.933 174.264 150.933 175.152V178.248C150.933 179.124 151.173 179.826 151.653 180.354C152.133 180.87 152.793 181.128 153.633 181.128C154.485 181.128 155.115 180.888 155.523 180.408C155.943 179.916 156.153 179.304 156.153 178.572V178.248H158.493V178.5C158.493 179.976 158.067 181.14 157.215 181.992C156.375 182.832 155.181 183.252 153.633 183.252ZM161.473 186.6V184.62H166.333C166.669 184.62 166.837 184.44 166.837 184.08V181.83H166.513C166.417 182.034 166.267 182.238 166.063 182.442C165.859 182.646 165.583 182.814 165.235 182.946C164.887 183.078 164.443 183.144 163.903 183.144C163.207 183.144 162.595 182.988 162.067 182.676C161.551 182.352 161.149 181.908 160.861 181.344C160.573 180.78 160.429 180.132 160.429 179.4V174.072H162.697V179.22C162.697 179.892 162.859 180.396 163.183 180.732C163.519 181.068 163.993 181.236 164.605 181.236C165.301 181.236 165.841 181.008 166.225 180.552C166.609 180.084 166.801 179.436 166.801 178.608V174.072H169.069V184.584C169.069 185.196 168.889 185.682 168.529 186.042C168.169 186.414 167.689 186.6 167.089 186.6H161.473ZM176.957 183.252C176.153 183.252 175.535 183.114 175.103 182.838C174.671 182.562 174.353 182.256 174.149 181.92H173.825V183H171.593V170.4H173.861V175.098H174.185C174.317 174.882 174.491 174.678 174.707 174.486C174.935 174.294 175.229 174.138 175.589 174.018C175.961 173.886 176.417 173.82 176.957 173.82C177.677 173.82 178.343 174 178.955 174.36C179.567 174.708 180.059 175.224 180.431 175.908C180.803 176.592 180.989 177.42 180.989 178.392V178.68C180.989 179.652 180.803 180.48 180.431 181.164C180.059 181.848 179.567 182.37 178.955 182.73C178.343 183.078 177.677 183.252 176.957 183.252ZM176.273 181.272C176.969 181.272 177.551 181.05 178.019 180.606C178.487 180.15 178.721 179.49 178.721 178.626V178.446C178.721 177.582 178.487 176.928 178.019 176.484C177.563 176.028 176.981 175.8 176.273 175.8C175.577 175.8 174.995 176.028 174.527 176.484C174.059 176.928 173.825 177.582 173.825 178.446V178.626C173.825 179.49 174.059 180.15 174.527 180.606C174.995 181.05 175.577 181.272 176.273 181.272ZM187.14 183.252C186.252 183.252 185.466 183.066 184.782 182.694C184.11 182.31 183.582 181.776 183.198 181.092C182.826 180.396 182.64 179.58 182.64 178.644V178.428C182.64 177.492 182.826 176.682 183.198 175.998C183.57 175.302 184.092 174.768 184.764 174.396C185.436 174.012 186.216 173.82 187.104 173.82C187.98 173.82 188.742 174.018 189.39 174.414C190.038 174.798 190.542 175.338 190.902 176.034C191.262 176.718 191.442 177.516 191.442 178.428V179.202H184.944C184.968 179.814 185.196 180.312 185.628 180.696C186.06 181.08 186.588 181.272 187.212 181.272C187.848 181.272 188.316 181.134 188.616 180.858C188.916 180.582 189.144 180.276 189.3 179.94L191.154 180.912C190.986 181.224 190.74 181.566 190.416 181.938C190.104 182.298 189.684 182.61 189.156 182.874C188.628 183.126 187.956 183.252 187.14 183.252ZM184.962 177.51H189.138C189.09 176.994 188.88 176.58 188.508 176.268C188.148 175.956 187.674 175.8 187.086 175.8C186.474 175.8 185.988 175.956 185.628 176.268C185.268 176.58 185.046 176.994 184.962 177.51ZM193.46 183V174.072H195.692V175.08H196.016C196.148 174.72 196.364 174.456 196.664 174.288C196.976 174.12 197.336 174.036 197.744 174.036H198.824V176.052H197.708C197.132 176.052 196.658 176.208 196.286 176.52C195.914 176.82 195.728 177.288 195.728 177.924V183H193.46ZM204.094 183.252C202.93 183.252 201.976 183 201.232 182.496C200.488 181.992 200.038 181.272 199.882 180.336L201.97 179.796C202.054 180.216 202.192 180.546 202.384 180.786C202.588 181.026 202.834 181.2 203.122 181.308C203.422 181.404 203.746 181.452 204.094 181.452C204.622 181.452 205.012 181.362 205.264 181.182C205.516 180.99 205.642 180.756 205.642 180.48C205.642 180.204 205.522 179.994 205.282 179.85C205.042 179.694 204.658 179.568 204.13 179.472L203.626 179.382C203.002 179.262 202.432 179.1 201.916 178.896C201.4 178.68 200.986 178.386 200.674 178.014C200.362 177.642 200.206 177.162 200.206 176.574C200.206 175.686 200.53 175.008 201.178 174.54C201.826 174.06 202.678 173.82 203.734 173.82C204.73 173.82 205.558 174.042 206.218 174.486C206.878 174.93 207.31 175.512 207.514 176.232L205.408 176.88C205.312 176.424 205.114 176.1 204.814 175.908C204.526 175.716 204.166 175.62 203.734 175.62C203.302 175.62 202.972 175.698 202.744 175.854C202.516 175.998 202.402 176.202 202.402 176.466C202.402 176.754 202.522 176.97 202.762 177.114C203.002 177.246 203.326 177.348 203.734 177.42L204.238 177.51C204.91 177.63 205.516 177.792 206.056 177.996C206.608 178.188 207.04 178.47 207.352 178.842C207.676 179.202 207.838 179.694 207.838 180.318C207.838 181.254 207.496 181.98 206.812 182.496C206.14 183 205.234 183.252 204.094 183.252ZM213.893 183.252C213.005 183.252 212.219 183.066 211.535 182.694C210.863 182.31 210.335 181.776 209.951 181.092C209.579 180.396 209.393 179.58 209.393 178.644V178.428C209.393 177.492 209.579 176.682 209.951 175.998C210.323 175.302 210.845 174.768 211.517 174.396C212.189 174.012 212.969 173.82 213.857 173.82C214.733 173.82 215.495 174.018 216.143 174.414C216.791 174.798 217.295 175.338 217.655 176.034C218.015 176.718 218.195 177.516 218.195 178.428V179.202H211.697C211.721 179.814 211.949 180.312 212.381 180.696C212.813 181.08 213.341 181.272 213.965 181.272C214.601 181.272 215.069 181.134 215.369 180.858C215.669 180.582 215.897 180.276 216.053 179.94L217.907 180.912C217.739 181.224 217.493 181.566 217.169 181.938C216.857 182.298 216.437 182.61 215.909 182.874C215.381 183.126 214.709 183.252 213.893 183.252ZM211.715 177.51H215.891C215.843 176.994 215.633 176.58 215.261 176.268C214.901 175.956 214.427 175.8 213.839 175.8C213.227 175.8 212.741 175.956 212.381 176.268C212.021 176.58 211.799 176.994 211.715 177.51ZM219.782 178.572V178.284C219.782 177.348 219.968 176.55 220.34 175.89C220.712 175.218 221.204 174.708 221.816 174.36C222.44 174 223.118 173.82 223.85 173.82C224.666 173.82 225.284 173.964 225.704 174.252C226.124 174.54 226.43 174.84 226.622 175.152H226.946V174.072H229.178V184.584C229.178 185.196 228.998 185.682 228.638 186.042C228.278 186.414 227.798 186.6 227.198 186.6H221.222V184.62H226.406C226.742 184.62 226.91 184.44 226.91 184.08V181.758H226.586C226.466 181.95 226.298 182.148 226.082 182.352C225.866 182.544 225.578 182.706 225.218 182.838C224.858 182.97 224.402 183.036 223.85 183.036C223.118 183.036 222.44 182.862 221.816 182.514C221.204 182.154 220.712 181.644 220.34 180.984C219.968 180.312 219.782 179.508 219.782 178.572ZM224.498 181.056C225.194 181.056 225.776 180.834 226.244 180.39C226.712 179.946 226.946 179.322 226.946 178.518V178.338C226.946 177.522 226.712 176.898 226.244 176.466C225.788 176.022 225.206 175.8 224.498 175.8C223.802 175.8 223.22 176.022 222.752 176.466C222.284 176.898 222.05 177.522 222.05 178.338V178.518C222.05 179.322 222.284 179.946 222.752 180.39C223.22 180.834 223.802 181.056 224.498 181.056ZM235.095 183.144C234.399 183.144 233.787 182.988 233.259 182.676C232.743 182.352 232.341 181.908 232.053 181.344C231.765 180.78 231.621 180.132 231.621 179.4V174.072H233.889V179.22C233.889 179.892 234.051 180.396 234.375 180.732C234.711 181.068 235.185 181.236 235.797 181.236C236.493 181.236 237.033 181.008 237.417 180.552C237.801 180.084 237.993 179.436 237.993 178.608V174.072H240.261V183H238.029V181.83H237.705C237.561 182.13 237.291 182.424 236.895 182.712C236.499 183 235.899 183.144 235.095 183.144ZM242.784 183V174.072H245.016V175.08H245.34C245.472 174.72 245.688 174.456 245.988 174.288C246.3 174.12 246.66 174.036 247.068 174.036H248.148V176.052H247.032C246.456 176.052 245.982 176.208 245.61 176.52C245.238 176.82 245.052 177.288 245.052 177.924V183H242.784ZM252.482 183.252C251.846 183.252 251.276 183.144 250.772 182.928C250.268 182.7 249.866 182.376 249.566 181.956C249.278 181.524 249.134 181.002 249.134 180.39C249.134 179.778 249.278 179.268 249.566 178.86C249.866 178.44 250.274 178.128 250.79 177.924C251.318 177.708 251.918 177.6 252.59 177.6H255.038V177.096C255.038 176.676 254.906 176.334 254.642 176.07C254.378 175.794 253.958 175.656 253.382 175.656C252.818 175.656 252.398 175.788 252.122 176.052C251.846 176.304 251.666 176.634 251.582 177.042L249.494 176.34C249.638 175.884 249.866 175.47 250.178 175.098C250.502 174.714 250.928 174.408 251.456 174.18C251.996 173.94 252.65 173.82 253.418 173.82C254.594 173.82 255.524 174.114 256.208 174.702C256.892 175.29 257.234 176.142 257.234 177.258V180.588C257.234 180.948 257.402 181.128 257.738 181.128H258.458V183H256.946C256.502 183 256.136 182.892 255.848 182.676C255.56 182.46 255.416 182.172 255.416 181.812V181.794H255.074C255.026 181.938 254.918 182.13 254.75 182.37C254.582 182.598 254.318 182.802 253.958 182.982C253.598 183.162 253.106 183.252 252.482 183.252ZM252.878 181.416C253.514 181.416 254.03 181.242 254.426 180.894C254.834 180.534 255.038 180.06 255.038 179.472V179.292H252.752C252.332 179.292 252.002 179.382 251.762 179.562C251.522 179.742 251.402 179.994 251.402 180.318C251.402 180.642 251.528 180.906 251.78 181.11C252.032 181.314 252.398 181.416 252.878 181.416ZM260.116 183V174.072H262.348V175.242H262.672C262.816 174.93 263.086 174.636 263.482 174.36C263.878 174.072 264.478 173.928 265.282 173.928C265.978 173.928 266.584 174.09 267.1 174.414C267.628 174.726 268.036 175.164 268.324 175.728C268.612 176.28 268.756 176.928 268.756 177.672V183H266.488V177.852C266.488 177.18 266.32 176.676 265.984 176.34C265.66 176.004 265.192 175.836 264.58 175.836C263.884 175.836 263.344 176.07 262.96 176.538C262.576 176.994 262.384 177.636 262.384 178.464V183H260.116ZM275.402 183.252C274.538 183.252 273.752 183.072 273.044 182.712C272.348 182.352 271.796 181.83 271.388 181.146C270.98 180.462 270.776 179.634 270.776 178.662V178.41C270.776 177.438 270.98 176.61 271.388 175.926C271.796 175.242 272.348 174.72 273.044 174.36C273.752 174 274.538 173.82 275.402 173.82C276.254 173.82 276.986 173.97 277.598 174.27C278.21 174.57 278.702 174.984 279.074 175.512C279.458 176.028 279.71 176.616 279.83 177.276L277.634 177.744C277.586 177.384 277.478 177.06 277.31 176.772C277.142 176.484 276.902 176.256 276.59 176.088C276.29 175.92 275.912 175.836 275.456 175.836C275 175.836 274.586 175.938 274.214 176.142C273.854 176.334 273.566 176.628 273.35 177.024C273.146 177.408 273.044 177.882 273.044 178.446V178.626C273.044 179.19 273.146 179.67 273.35 180.066C273.566 180.45 273.854 180.744 274.214 180.948C274.586 181.14 275 181.236 275.456 181.236C276.14 181.236 276.656 181.062 277.004 180.714C277.364 180.354 277.592 179.886 277.688 179.31L279.884 179.832C279.728 180.468 279.458 181.05 279.074 181.578C278.702 182.094 278.21 182.502 277.598 182.802C276.986 183.102 276.254 183.252 275.402 183.252ZM275.402 186.852C275.018 186.852 274.64 186.816 274.268 186.744C273.908 186.672 273.596 186.594 273.332 186.51L273.692 185.16C273.92 185.232 274.16 185.298 274.412 185.358C274.676 185.418 274.97 185.448 275.294 185.448C275.534 185.448 275.732 185.406 275.888 185.322C276.044 185.238 276.122 185.106 276.122 184.926C276.122 184.758 276.05 184.632 275.906 184.548C275.774 184.476 275.552 184.44 275.24 184.44H274.556L274.682 182.64H276.23L276.158 183.702C276.614 183.702 276.998 183.828 277.31 184.08C277.634 184.332 277.796 184.704 277.796 185.196C277.796 185.58 277.682 185.892 277.454 186.132C277.226 186.384 276.926 186.564 276.554 186.672C276.194 186.792 275.81 186.852 275.402 186.852ZM284.527 183.252C283.891 183.252 283.321 183.144 282.817 182.928C282.313 182.7 281.911 182.376 281.611 181.956C281.323 181.524 281.179 181.002 281.179 180.39C281.179 179.778 281.323 179.268 281.611 178.86C281.911 178.44 282.319 178.128 282.835 177.924C283.363 177.708 283.963 177.6 284.635 177.6H287.083V177.096C287.083 176.676 286.951 176.334 286.687 176.07C286.423 175.794 286.003 175.656 285.427 175.656C284.863 175.656 284.443 175.788 284.167 176.052C283.891 176.304 283.711 176.634 283.627 177.042L281.539 176.34C281.683 175.884 281.911 175.47 282.223 175.098C282.547 174.714 282.973 174.408 283.501 174.18C284.041 173.94 284.695 173.82 285.463 173.82C286.639 173.82 287.569 174.114 288.253 174.702C288.937 175.29 289.279 176.142 289.279 177.258V180.588C289.279 180.948 289.447 181.128 289.783 181.128H290.503V183H288.991C288.547 183 288.181 182.892 287.893 182.676C287.605 182.46 287.461 182.172 287.461 181.812V181.794H287.119C287.071 181.938 286.963 182.13 286.795 182.37C286.627 182.598 286.363 182.802 286.003 182.982C285.643 183.162 285.151 183.252 284.527 183.252ZM284.923 181.416C285.559 181.416 286.075 181.242 286.471 180.894C286.879 180.534 287.083 180.06 287.083 179.472V179.292H284.797C284.377 179.292 284.047 179.382 283.807 179.562C283.567 179.742 283.447 179.994 283.447 180.318C283.447 180.642 283.573 180.906 283.825 181.11C284.077 181.314 284.443 181.416 284.923 181.416Z" fill="white"/>
<circle cx="161.5" cy="110.5" r="32" fill="white" fill-opacity="0.15" stroke="#7327FF"/>
<path d="M156.011 90C154.525 90 153.218 90.7674 152.296 91.7617C151.374 92.756 150.711 93.9972 150.12 95.3385C149.218 97.4072 148.575 99.7028 147.997 101.852C146.153 102.392 144.588 103.066 143.327 103.88C141.854 104.834 140.62 106.156 140.62 107.938C140.62 109.486 141.563 110.727 142.743 111.621C143.752 112.382 144.992 113.016 146.458 113.543C146.545 113.937 146.671 114.337 146.83 114.717C145.397 115.532 143.128 117.106 140.939 120.109L139.931 121.551L141.363 122.565L146.936 126.409L144.654 131H177.346L175.064 126.409L180.637 122.565L182.069 121.551L181.061 120.109C178.872 117.106 176.603 115.532 175.17 114.717C175.329 114.337 175.455 113.937 175.542 113.543C177.008 113.016 178.248 112.382 179.257 111.621C180.437 110.727 181.38 109.486 181.38 107.938C181.38 106.156 180.146 104.834 178.673 103.88C177.412 103.066 175.847 102.392 174.003 101.852C173.366 99.6227 172.662 97.2871 171.774 95.2318C171.196 93.9038 170.56 92.6826 169.651 91.7083C168.742 90.7341 167.448 90 165.989 90C165 90 164.251 90.2736 163.441 90.4805C162.632 90.6873 161.816 90.8542 161 90.8542C159.368 90.8542 158.001 90 156.011 90ZM156.011 93.4167C156.363 93.4167 158.453 94.2708 161 94.2708C162.274 94.2708 163.408 94.0106 164.29 93.7904C165.173 93.5702 165.843 93.4167 165.989 93.4167C166.38 93.4167 166.672 93.5435 167.156 94.0573C167.641 94.5711 168.211 95.4987 168.695 96.6198C169.618 98.7419 170.321 101.638 171.084 104.307C171.084 104.301 171.176 104.227 170.924 104.361C170.5 104.594 169.611 104.895 168.536 105.055C166.38 105.382 163.441 105.375 161 105.375C158.572 105.375 155.626 105.342 153.464 105.001C152.382 104.834 151.507 104.541 151.076 104.307C150.943 104.234 150.896 104.261 150.863 104.254C150.863 104.234 150.863 104.221 150.863 104.201C150.87 104.187 150.857 104.16 150.863 104.147C150.883 104.127 150.896 104.114 150.916 104.094C151.042 103.867 151.115 103.607 151.129 103.346C151.129 103.326 151.129 103.313 151.129 103.293C151.739 101.024 152.422 98.6217 153.252 96.7266C153.749 95.5854 154.286 94.6579 154.791 94.1107C155.295 93.5635 155.64 93.4167 156.011 93.4167ZM147.732 105.535C148.117 106.336 148.794 106.977 149.483 107.35C150.518 107.904 151.706 108.164 152.986 108.365C155.547 108.765 158.545 108.792 161 108.792C163.441 108.792 166.446 108.805 169.014 108.418C170.301 108.224 171.475 107.971 172.517 107.404C173.213 107.023 173.89 106.349 174.268 105.535C175.316 105.909 176.198 106.309 176.815 106.71C177.804 107.35 177.983 107.824 177.983 107.938C177.983 108.038 177.897 108.365 177.187 108.898C176.477 109.432 175.256 110.053 173.684 110.553C170.54 111.561 166.015 112.208 161 112.208C155.985 112.208 151.46 111.561 148.316 110.553C146.744 110.053 145.523 109.432 144.813 108.898C144.103 108.365 144.017 108.038 144.017 107.938C144.017 107.824 144.15 107.397 145.132 106.763C145.749 106.363 146.657 105.929 147.732 105.535ZM152.137 114.878C152.694 114.971 153.245 115.125 153.835 115.198C154.054 116.699 155.215 118.021 157.073 118.134C158.506 118.221 160.118 117.54 160.257 115.625C160.509 115.625 160.748 115.625 161 115.625C161.252 115.625 161.491 115.625 161.743 115.625C161.882 117.54 163.494 118.221 164.927 118.134C166.785 118.021 167.946 116.699 168.165 115.198C168.755 115.125 169.306 114.971 169.863 114.878L169.704 115.945C169.18 118.755 167.932 121.357 166.36 123.152C164.788 124.947 162.944 125.902 161 125.875C159.003 125.848 157.199 124.881 155.64 123.099C154.081 121.317 152.854 118.768 152.296 115.945L152.137 114.878ZM172.888 117.333C173.518 117.707 175.177 118.801 177.081 120.91L171.933 124.487L170.712 125.288L171.349 126.622L171.827 127.583H166.466C167.355 126.983 168.178 126.229 168.908 125.395C170.778 123.259 172.032 120.463 172.729 117.44C172.789 117.407 172.835 117.367 172.888 117.333ZM149.059 117.387C149.125 117.427 149.205 117.453 149.271 117.493C150.001 120.476 151.248 123.239 153.092 125.341C153.855 126.215 154.744 126.963 155.693 127.583H150.173L150.651 126.622L151.288 125.288L150.067 124.487L144.919 120.91C146.717 118.915 148.356 117.814 149.059 117.387Z" fill="#7327FF"/>
</g>
<rect x="1" y="1" width="321" height="254" stroke="#7327FF" stroke-width="2"/>
<defs>
<clipPath id="clip0_8_4">
<rect width="323" height="256" fill="white"/>
</clipPath>
</defs>
</svg>
