<svg width="323" height="256" viewBox="0 0 323 256" fill="none" xmlns="http://www.w3.org/2000/svg">
<g clip-path="url(#clip0_321_162)">
<rect width="323" height="256" fill="#201E21"/>
<g opacity="0.5">
<path d="M0.951012 0.00012207V16.0001L10.6714 0.00012207H0.951012Z" fill="#7327FF"/>
<path d="M20.8547 0.00012207L0.951012 32.0002V56.0001L35.2037 0.00012207H20.8547Z" fill="#7327FF"/>
<path d="M25.0209 56.0001H10.6718L44.9245 0.00012207H59.2736L25.0209 56.0001Z" fill="#7327FF"/>
<path d="M49.5523 56.0001H35.2032L69.456 0.00012207H83.805L49.5523 56.0001Z" fill="#7327FF"/>
<path d="M73.6227 56.0001H59.2736L93.5262 0.00012207H107.875L73.6227 56.0001Z" fill="#7327FF"/>
<path d="M98.1541 56.0001H83.805L117.595 0.00012207H132.407L98.1541 56.0001Z" fill="#7327FF"/>
<path d="M122.224 56.0001H107.875L142.128 0.00012207H156.477L122.224 56.0001Z" fill="#7327FF"/>
<path d="M146.756 56.0001H132.407L166.197 0.00012207H180.546L146.756 56.0001Z" fill="#7327FF"/>
<path d="M170.826 56.0001H156.477L190.73 0.00012207H205.079L170.826 56.0001Z" fill="#7327FF"/>
<path d="M195.357 56.0001H180.545L214.798 0.00012207H229.147L195.357 56.0001Z" fill="#7327FF"/>
<path d="M219.428 56.0001H205.079L239.332 0.00012207H253.681L219.428 56.0001Z" fill="#7327FF"/>
<path d="M243.496 56.0001H229.147L263.4 0.00012207H277.749L243.496 56.0001Z" fill="#7327FF"/>
<path d="M287.47 0.00012207L253.681 56.0001H268.03L293.488 14.1178V0.00012207H287.47Z" fill="#7327FF"/>
<path d="M277.749 55.9997H292.098L293.486 53.6467V30.1173L277.749 55.9997Z" fill="#7327FF"/>
</g>
<path d="M-208.466 43.2006C-212.171 48.2006 -217.138 51 -222.312 51H-236L-210.287 15.3866C-205.949 9.37879 -200.065 6 -193.928 6H-180.908L-208.466 43.2006ZM-145.413 6H-158.432C-164.57 6 -170.454 9.37392 -174.792 15.3866L-200.505 51H-186.817C-181.643 51 -176.676 48.2006 -172.971 43.2006L-145.413 6ZM-109.917 6H-122.937C-129.074 6 -134.959 9.37392 -139.296 15.3866L-165.009 51H-151.321C-146.147 51 -141.18 48.2006 -137.475 43.2006L-109.917 6ZM-74.4218 6H-87.4417C-93.579 6 -99.4633 9.37392 -103.801 15.3866L-129.514 51H-115.826C-110.652 51 -105.685 48.2006 -101.98 43.2006L-74.4218 6ZM-38.9264 6H-51.9463C-58.0801 6 -63.9679 9.37392 -68.3055 15.3866L-94.0184 51H-80.3307C-75.1564 51 -70.1896 48.2006 -66.4847 43.2006L-38.9264 6ZM-3.43097 6H-16.4509C-22.5847 6 -28.4689 9.37392 -32.8101 15.3866L-58.523 51H-44.8353C-39.661 51 -34.6942 48.2006 -30.9893 43.2006L-3.43097 6ZM32.0644 6H19.0445C12.9072 6 7.02292 9.37392 2.68529 15.3866L-23.0276 51H-9.33981C-4.1656 51 0.801224 48.2006 4.50613 43.2006L32.0644 6ZM67.5598 6H54.5399C48.4026 6 42.5184 9.37392 38.1807 15.3866L12.4678 51H26.1555C31.3297 51 36.2966 48.2006 40.0015 43.2006L67.5598 6ZM103.055 6H90.0353C83.8979 6 78.0137 9.37392 73.6761 15.3866L47.9632 51H61.6509C66.8251 51 71.792 48.2006 75.4969 43.2006L103.055 6ZM138.551 6H125.531C119.397 6 113.509 9.37392 109.172 15.3866L83.4586 51H97.1464C102.321 51 107.287 48.2006 110.992 43.2006L138.551 6ZM174.046 6H161.026C154.892 6 149.008 9.37392 144.667 15.3866L118.954 51H132.642C137.816 51 142.783 48.2006 146.488 43.2006L174.046 6ZM209.541 6H196.522C190.384 6 184.5 9.37392 180.162 15.3866L154.449 51H168.137C173.311 51 178.278 48.2006 181.983 43.2006L209.541 6ZM245.037 6H232.017C225.88 6 219.995 9.37392 215.658 15.3866L189.945 51H203.633C208.807 51 213.774 48.2006 217.478 43.2006L245.037 6ZM280.532 6H267.512C261.375 6 255.491 9.37392 251.153 15.3866L225.44 51H239.128C244.302 51 249.269 48.2006 252.974 43.2006L280.532 6ZM316.028 6H303.008C296.874 6 290.986 9.37392 286.648 15.3866L260.936 51H274.623C279.798 51 284.764 48.2006 288.469 43.2006L316.028 6ZM351.523 6H338.503C332.369 6 326.485 9.37392 322.144 15.3866L296.431 51H310.119C315.293 51 320.26 48.2006 323.965 43.2006L351.523 6ZM387.018 6H373.999C367.861 6 361.977 9.37392 357.639 15.3866L331.926 51H345.614C350.788 51 355.755 48.2006 359.46 43.2006L387.018 6ZM422.514 6H409.494C403.357 6 397.472 9.37392 393.135 15.3866L367.422 51H381.109C386.284 51 391.251 48.2006 394.956 43.2006L422.514 6ZM458.009 6H444.989C438.852 6 432.968 9.37392 428.63 15.3866L402.917 51H416.605C421.779 51 426.746 48.2006 430.451 43.2006L458.009 6ZM493.505 6H480.485C474.347 6 468.463 9.37392 464.125 15.3866L438.413 51H452.1C457.274 51 462.241 48.2006 465.946 43.2006L493.505 6ZM529 6H515.98C509.846 6 503.958 9.37392 499.621 15.3866L473.908 51H487.596C492.77 51 497.737 48.2006 501.442 43.2006L529 6Z" fill="#D9D9D9"/>
<line x1="100.354" y1="228.471" x2="90.3536" y2="238.471" stroke="#D9D9D9"/>
<line x1="60.3536" y1="228.471" x2="50.3536" y2="238.471" stroke="#D9D9D9"/>
<line x1="90.3536" y1="228.471" x2="80.3536" y2="238.471" stroke="#D9D9D9"/>
<line x1="50.3536" y1="228.471" x2="40.3536" y2="238.471" stroke="#D9D9D9"/>
<line x1="80.3536" y1="228.471" x2="70.3536" y2="238.471" stroke="#D9D9D9"/>
<line x1="40.3536" y1="228.471" x2="30.3536" y2="238.471" stroke="#D9D9D9"/>
<line x1="70.3536" y1="228.471" x2="60.3536" y2="238.471" stroke="#D9D9D9"/>
<line x1="30.3536" y1="228.471" x2="20.3536" y2="238.471" stroke="#D9D9D9"/>
<rect x="269" y="238.117" width="7" height="24" transform="rotate(-90 269 238.117)" fill="#D9D9D9"/>
<path d="M142.48 183L145.792 170.4H149.932L153.244 183H150.796L150.112 180.228H145.612L144.928 183H142.48ZM146.17 178.032H149.554L148.024 171.894H147.7L146.17 178.032ZM158.226 183.144C157.53 183.144 156.918 182.988 156.39 182.676C155.874 182.352 155.472 181.908 155.184 181.344C154.896 180.78 154.752 180.132 154.752 179.4V174.072H157.02V179.22C157.02 179.892 157.182 180.396 157.506 180.732C157.842 181.068 158.316 181.236 158.928 181.236C159.624 181.236 160.164 181.008 160.548 180.552C160.932 180.084 161.124 179.436 161.124 178.608V174.072H163.392V183H161.16V181.83H160.836C160.692 182.13 160.422 182.424 160.026 182.712C159.63 183 159.03 183.144 158.226 183.144ZM165.916 183V170.4H168.184V183H165.916ZM173.47 183.252C172.834 183.252 172.264 183.144 171.76 182.928C171.256 182.7 170.854 182.376 170.554 181.956C170.266 181.524 170.122 181.002 170.122 180.39C170.122 179.778 170.266 179.268 170.554 178.86C170.854 178.44 171.262 178.128 171.778 177.924C172.306 177.708 172.906 177.6 173.578 177.6H176.026V177.096C176.026 176.676 175.894 176.334 175.63 176.07C175.366 175.794 174.946 175.656 174.37 175.656C173.806 175.656 173.386 175.788 173.11 176.052C172.834 176.304 172.654 176.634 172.57 177.042L170.482 176.34C170.626 175.884 170.854 175.47 171.166 175.098C171.49 174.714 171.916 174.408 172.444 174.18C172.984 173.94 173.638 173.82 174.406 173.82C175.582 173.82 176.512 174.114 177.196 174.702C177.88 175.29 178.222 176.142 178.222 177.258V180.588C178.222 180.948 178.39 181.128 178.726 181.128H179.446V183H177.934C177.49 183 177.124 182.892 176.836 182.676C176.548 182.46 176.404 182.172 176.404 181.812V181.794H176.062C176.014 181.938 175.906 182.13 175.738 182.37C175.57 182.598 175.306 182.802 174.946 182.982C174.586 183.162 174.094 183.252 173.47 183.252ZM173.866 181.416C174.502 181.416 175.018 181.242 175.414 180.894C175.822 180.534 176.026 180.06 176.026 179.472V179.292H173.74C173.32 179.292 172.99 179.382 172.75 179.562C172.51 179.742 172.39 179.994 172.39 180.318C172.39 180.642 172.516 180.906 172.768 181.11C173.02 181.314 173.386 181.416 173.866 181.416Z" fill="white"/>
<circle cx="161.5" cy="110.5" r="32" fill="white" fill-opacity="0.15" stroke="#7327FF"/>
<path d="M163.623 95L155.754 127H158.377L166.246 95H163.623ZM150.426 97.0455L141.574 110.136L141 111L141.574 111.864L150.426 124.955L152.557 123.227L144.279 111L152.557 98.7727L150.426 97.0455ZM171.574 97.0455L169.443 98.7727L177.721 111L169.443 123.227L171.574 124.955L180.426 111.864L181 111L180.426 110.136L171.574 97.0455Z" fill="#7327FF"/>
</g>
<rect x="1" y="1" width="321" height="254" stroke="#7327FF" stroke-width="2"/>
<defs>
<clipPath id="clip0_321_162">
<rect width="323" height="256" fill="white"/>
</clipPath>
</defs>
</svg>
