<svg width="38" height="35" viewBox="0 0 38 35" fill="none" xmlns="http://www.w3.org/2000/svg">
<path d="M14.4361 16.1541C15.4221 16.7136 15.7602 17.9723 15.1967 18.9514C14.6333 19.9304 13.3655 20.2661 12.3795 19.7066L8.35088 17.3569C6.35065 16.1821 3.8715 17.7765 4.12505 20.0703L4.18139 20.6017C4.43494 22.8116 3.47709 24.9934 1.70224 26.3081C-2.24188 29.2452 1.30781 35.3432 5.84355 33.4131C7.90012 32.546 10.2666 32.7977 12.0696 34.1404L12.4922 34.4481C14.3516 35.8188 16.9998 34.4761 16.9716 32.1823L16.9434 27.5389C16.9434 26.392 17.8731 25.4969 19 25.4969C20.1269 25.4969 21.0566 26.42 21.0566 27.5389L21.0284 32.1823C21.0002 34.4761 23.6484 35.8188 25.5078 34.4481L25.9304 34.1404C27.7334 32.8257 30.0999 32.546 32.1564 33.4131C36.6922 35.3432 40.2419 29.2452 36.2978 26.3081C34.4947 24.9654 33.5651 22.8116 33.8186 20.6017L33.8749 20.0703C34.1285 17.7765 31.6493 16.1821 29.6491 17.3569L25.6205 19.7066C24.6344 20.2661 23.3667 19.9304 22.8032 18.9514C22.2398 17.9723 22.5779 16.7136 23.5639 16.1541L27.6489 13.8604C29.6773 12.7135 29.5082 9.80435 27.3953 8.88126L26.9164 8.65748C24.8598 7.76236 23.423 5.86023 23.1695 3.65041C22.606 -1.2168 15.4785 -1.2168 14.915 3.65041C14.6615 5.86023 13.2247 7.76236 11.1681 8.65748L10.6892 8.88126C8.57626 9.80435 8.40724 12.7415 10.4356 13.8604L14.4361 16.1541Z" fill="#F5F5F5"/>
</svg>
