<svg width="35" height="35" viewBox="0 0 35 35" fill="none" xmlns="http://www.w3.org/2000/svg">
<path d="M11.3399 8.09199V0H8.81995V8.09199L10.0799 9.35199L11.3399 8.09199Z" fill="white"/>
<path d="M12.0957 11.3399H22.9317L24.1917 10.0799L22.9317 8.81995H12.0957L10.8357 10.0799L12.0957 11.3399Z" fill="white"/>
<path d="M26.2081 8.09199V0H23.6881V8.09199L24.9481 9.35199L26.2081 8.09199Z" fill="white"/>
<path d="M8.09199 8.81995H0V11.3399H8.09199L9.35199 10.0799L8.09199 8.81995Z" fill="white"/>
<path d="M8.81995 26.9361V35.0001H11.3399V26.9361L10.0799 25.6761L8.81995 26.9361Z" fill="white"/>
<path d="M26.9361 26.2081H35.0001V23.6881H26.9361L25.6761 24.9481L26.9361 26.2081Z" fill="white"/>
<path d="M23.6881 12.0962V22.9322L24.9481 24.1922L26.2081 22.9322V12.0962L24.9481 10.8362L23.6881 12.0962Z" fill="white"/>
<path d="M35.0001 8.81995H26.9361L25.6761 10.0799L26.9361 11.3399H35.0001V8.81995Z" fill="white"/>
<path d="M8.09199 23.6881H0V26.2081H8.09199L9.35199 24.9481L8.09199 23.6881Z" fill="white"/>
<path d="M11.3399 22.9322V12.0962L10.0799 10.8362L8.81995 12.0962V22.9322L10.0799 24.1922L11.3399 22.9322Z" fill="white"/>
<path d="M22.9317 23.6881H12.0957L10.8357 24.9481L12.0957 26.2081H22.9317L24.1917 24.9481L22.9317 23.6881Z" fill="white"/>
<path d="M23.6881 26.9361V35.0001H26.2081V26.9361L24.9481 25.6761L23.6881 26.9361Z" fill="white"/>
</svg>
