<svg width="38" height="35" viewBox="0 0 38 35" fill="none" xmlns="http://www.w3.org/2000/svg">
<path d="M35.7502 21.7173C34.2316 20.1987 32.2068 19.4394 30.2101 19.4675C29.029 19.4675 27.9604 18.8488 27.3698 17.8364L25.6825 14.9399C25.0919 13.9275 25.0919 12.662 25.6825 11.6496C27.4261 8.69676 27.0323 4.81591 24.4732 2.2568C21.4642 -0.752266 16.5709 -0.752266 13.5337 2.2568C10.9746 4.81591 10.5809 8.66864 12.3245 11.6496C12.9151 12.662 12.9151 13.9275 12.3245 14.9399L10.6372 17.8364C10.0466 18.8488 8.97799 19.4956 7.79687 19.4675C5.8002 19.4394 3.77539 20.1987 2.2568 21.7173C-0.752266 24.7263 -0.752266 29.6196 2.2568 32.6568C5.26586 35.6658 10.1591 35.6658 13.1963 32.6568C13.7025 32.1506 14.1243 31.5881 14.4618 30.9976C15.0523 29.9852 16.121 29.3384 17.3021 29.3384H20.6486C21.8298 29.3384 22.9265 29.957 23.489 30.9976C23.8264 31.5881 24.2483 32.1506 24.7545 32.6568C27.7635 35.6658 32.6568 35.6658 35.694 32.6568C38.7593 29.6196 38.7592 24.7263 35.7502 21.7173ZM14.4337 19.9456L16.121 17.049C16.7116 16.0085 17.8083 15.4179 19.0175 15.4179C19.0457 15.4179 19.0738 15.4179 19.1019 15.4179C20.2831 15.4179 21.3798 16.0366 21.9985 17.049L23.6858 19.9456C24.2764 20.958 24.2764 22.2235 23.6577 23.2359C23.6296 23.264 23.6296 23.2921 23.6296 23.3202C23.039 24.3608 21.9423 25.0076 20.7611 25.0076H17.4146C16.2335 25.0076 15.1367 24.3608 14.5462 23.3202C14.5462 23.2921 14.518 23.264 14.518 23.2359C13.8431 22.2516 13.8431 20.9861 14.4337 19.9456Z" fill="white"/>
</svg>
