<svg width="38" height="38" viewBox="0 0 38 38" fill="none" xmlns="http://www.w3.org/2000/svg">
<path d="M19.2952 0.0280762H18.7327V13.923H19.2952V0.0280762Z" fill="#F5F5F5"/>
<path d="M19.2953 24.1052H18.7328V38.0001H19.2953V24.1052Z" fill="#F5F5F5"/>
<path d="M13.9231 18.7329H0.0281982V19.2955H13.9231V18.7329Z" fill="#F5F5F5"/>
<path d="M38 18.7329H24.1051V19.2955H38V18.7329Z" fill="#F5F5F5"/>
<path d="M19.0141 32.0369C11.8135 32.0369 5.96301 26.1865 5.96301 18.9859C5.96301 11.7853 11.8135 5.93481 19.0141 5.93481C26.2147 5.93481 32.0651 11.7853 32.0651 18.9859C32.0651 26.1865 26.1865 32.0369 19.0141 32.0369ZM19.0141 6.52548C12.1229 6.52548 6.52556 12.1228 6.52556 19.014C6.52556 25.9052 12.1229 31.5025 19.0141 31.5025C25.9053 31.5025 31.5026 25.9052 31.5026 19.014C31.5026 12.1228 25.8771 6.52548 19.0141 6.52548Z" fill="#F5F5F5"/>
<path d="M19.2953 18.7326H24.105C23.9644 16.1449 21.883 14.0635 19.2953 13.9229V18.7326Z" fill="#F5F5F5"/>
<path d="M18.7326 18.7326V13.9229C16.1449 14.0635 14.0635 16.1449 13.9229 18.7326H18.7326Z" fill="#F5F5F5"/>
<path d="M18.7326 19.2952H13.9229C14.0635 21.8829 16.1449 23.9643 18.7326 24.1049V19.2952Z" fill="#F5F5F5"/>
<path d="M19.2953 19.2952V24.1049C21.883 23.9643 23.9644 21.8829 24.105 19.2952H19.2953Z" fill="#F5F5F5"/>
</svg>
