<svg width="329" height="679" viewBox="0 0 329 679" fill="none" xmlns="http://www.w3.org/2000/svg">
<path fill-rule="evenodd" clip-rule="evenodd" d="M232 549.75V605.25L280.5 633L329 605.25V549.75L280.5 522L232 549.75ZM239.545 600.981V555.087L280.5 531.606L320.378 555.087V600.981L280.5 624.462L239.545 600.981Z" fill="white" fill-opacity="0.1"/>
<path fill-rule="evenodd" clip-rule="evenodd" d="M176 453.75V509.25L224 537L272 509.25V453.75L224 426L176 453.75ZM183.467 504.981V459.087L224 435.606L263.467 459.087V504.981L224 528.462L183.467 504.981Z" fill="white" fill-opacity="0.1"/>
<path fill-rule="evenodd" clip-rule="evenodd" d="M190 463.286V500.786L223.541 519L256 500.786V463.286L223.541 444L190 463.286ZM197.574 496.5V468.643L222.459 453.643L247.344 468.643V496.5L222.459 510.429L197.574 496.5Z" fill="white" fill-opacity="0.1"/>
<path fill-rule="evenodd" clip-rule="evenodd" d="M232 357.5V412.5L279.5 440L327 412.5V357.5L279.5 330L232 357.5ZM239.389 408.269V362.788L279.5 339.519L318.556 362.788V408.269L279.5 431.539L239.389 408.269Z" fill="white" fill-opacity="0.1"/>
<path fill-rule="evenodd" clip-rule="evenodd" d="M175 261.75V317.25L222.5 345L270 317.25V261.75L222.5 234L175 261.75ZM182.389 312.981V267.086L222.5 243.605L261.556 267.086V312.981L222.5 336.462L182.389 312.981Z" fill="white" fill-opacity="0.1"/>
<path fill-rule="evenodd" clip-rule="evenodd" d="M189 272.286V309.786L222.541 328L255 309.786V272.286L222.541 253L189 272.286ZM196.574 305.5V277.643L221.459 262.642L246.344 277.643V305.5L221.459 319.428L196.574 305.5Z" fill="white" fill-opacity="0.1"/>
<path fill-rule="evenodd" clip-rule="evenodd" d="M173 70.5003V125.5L221 153L269 125.5V70.5003L221 43L173 70.5003ZM180.467 121.269V75.7888L221 52.5195L260.467 75.7888V121.269L221 144.539L180.467 121.269Z" fill="white" fill-opacity="0.1"/>
<path fill-rule="evenodd" clip-rule="evenodd" d="M187 79.5427V117.543L220.541 136L253 117.543V79.5427L220.541 60L187 79.5427ZM194.574 113.2V84.9713L219.459 69.7717L244.344 84.9713V113.2L219.459 127.314L194.574 113.2Z" fill="white" fill-opacity="0.1"/>
<path fill-rule="evenodd" clip-rule="evenodd" d="M127 550V606L175 634L223 606V550L175 522L127 550ZM135.534 601.692V555.385L175 531.693L215.534 555.385V601.692L175 625.385L135.534 601.692Z" fill="white" fill-opacity="0.1"/>
<path fill-rule="evenodd" clip-rule="evenodd" d="M143 559.286V596.786L175.5 615L208 596.786V559.286L175.5 540L143 559.286ZM151.667 592.5V564.643L175.5 550.714L200.417 564.643V592.5L175.5 606.429L151.667 592.5Z" fill="white" fill-opacity="0.1"/>
<path fill-rule="evenodd" clip-rule="evenodd" d="M71 453.75V509.25L118.5 537L166 509.25V453.75L118.5 426L71 453.75ZM79.4443 504.981V459.087L118.5 435.606L158.611 459.087V504.981L118.5 528.462L79.4443 504.981Z" fill="white" fill-opacity="0.1"/>
<path fill-rule="evenodd" clip-rule="evenodd" d="M126 357.75V413.25L174 441L222 413.25V357.75L174 330L126 357.75ZM134.534 408.981V363.086L174 339.605L214.534 363.086V408.981L174 432.462L134.534 408.981Z" fill="white" fill-opacity="0.1"/>
<path fill-rule="evenodd" clip-rule="evenodd" d="M69 262.5V317.5L117 345L165 317.5V262.5L117 235L69 262.5ZM77.5332 313.269V267.788L117 244.519L157.534 267.788V313.269L117 336.539L77.5332 313.269Z" fill="white" fill-opacity="0.1"/>
<path fill-rule="evenodd" clip-rule="evenodd" d="M85 272.286V309.786L117 328L149 309.786V272.286L117 253L85 272.286ZM93.5332 305.5V277.643L117 262.642L141.533 277.643V305.5L117 319.428L93.5332 305.5Z" fill="white" fill-opacity="0.1"/>
<path fill-rule="evenodd" clip-rule="evenodd" d="M125 167.75V223.25L173 251L221 223.25V167.75L173 140L125 167.75ZM133.534 217.914V172.019L173 148.539L213.534 172.019V217.914L173 241.394L133.534 217.914Z" fill="white" fill-opacity="0.1"/>
<path fill-rule="evenodd" clip-rule="evenodd" d="M68 70.7503V126.25L116 154L164 126.25V70.7503L116 43L68 70.7503ZM76.5332 121.981V76.0869L116 52.606L156.534 76.0869V121.981L116 145.462L76.5332 121.981Z" fill="white" fill-opacity="0.1"/>
<path fill-rule="evenodd" clip-rule="evenodd" d="M22 550V606L70.5 634L119 606V550L70.5 522L22 550ZM29.5446 601.692V555.385L70.5 531.693L110.378 555.385V601.692L70.5 625.385L29.5446 601.692Z" fill="white" fill-opacity="0.1"/>
<path fill-rule="evenodd" clip-rule="evenodd" d="M-34 454V510L14 538L62 510L62 454L14 426L-34 454ZM-26.5339 505.692V459.385L14 435.693L53.4661 459.385L53.4661 505.692L14 529.385L-26.5339 505.692Z" fill="white" fill-opacity="0.1"/>
<path fill-rule="evenodd" clip-rule="evenodd" d="M-19 464.286V501.786L14.033 520L46 501.786V464.286L14.033 445L-19 464.286ZM-11.5409 497.5V469.643L12.967 454.643L37.4749 469.643V497.5L12.967 511.429L-11.5409 497.5Z" fill="white" fill-opacity="0.1"/>
<path fill-rule="evenodd" clip-rule="evenodd" d="M21 358V414L69.5 442L118 414V358L69.5 330L21 358ZM28.5446 409.692V363.384L69.5 339.692L109.378 363.384V409.692L69.5 433.385L28.5446 409.692Z" fill="white" fill-opacity="0.1"/>
<path fill-rule="evenodd" clip-rule="evenodd" d="M-36 262.75V318.25L12.5 346L61 318.25L61 262.75L12.5 235L-36 262.75ZM-28.4561 313.981V268.086L12.5 244.605L52.3773 268.086L52.3773 313.981L12.5 337.462L-28.4561 313.981Z" fill="white" fill-opacity="0.1"/>
<path fill-rule="evenodd" clip-rule="evenodd" d="M20 167.75V223.25L68.5 251L117 223.25V167.75L68.5 140L20 167.75ZM27.5446 217.914V172.019L68.5 148.539L108.378 172.019V217.914L68.5 241.394L27.5446 217.914Z" fill="white" fill-opacity="0.1"/>
<path fill-rule="evenodd" clip-rule="evenodd" d="M-37 70.7503V126.25L11.5 154L60 126.25L60 70.7503L11.5 43L-37 70.7503ZM-29.4561 121.981V76.0869L11.5 52.606L51.3773 76.0869L51.3773 121.981L11.5 145.462L-29.4561 121.981Z" fill="white" fill-opacity="0.1"/>
<path fill-rule="evenodd" clip-rule="evenodd" d="M-22 80.5427V118.543L11.5412 137L44 118.543V80.5427L11.5412 61L-22 80.5427ZM-14.4261 114.2V85.9713L10.4588 70.7717L35.3438 85.9713V114.2L10.4588 128.314L-14.4261 114.2Z" fill="white" fill-opacity="0.1"/>
<path d="M111 0V47H120V0H111Z" fill="white" fill-opacity="0.1"/>
<path d="M172 629V679H181V629H172Z" fill="white" fill-opacity="0.1"/>
<path d="M67 630V656H75V630H67Z" fill="white" fill-opacity="0.1"/>
</svg>
