<svg width="58" height="54" viewBox="0 0 58 54" fill="none" xmlns="http://www.w3.org/2000/svg">
<path d="M35.3408 40.5948C31.8166 40.7483 30.6143 37.9777 30.3836 36.1536C30.3439 35.84 30.0883 35.5871 29.7727 35.5871H28.4621C28.1465 35.5871 27.8909 35.8401 27.8516 36.1537C27.6218 37.9882 26.4201 40.7779 22.894 40.6234C19.6647 40.482 16.2616 39.699 14.2731 39.1283C13.8228 38.9991 13.3937 39.4189 13.5254 39.8692L15.8772 47.9064C16.076 48.5858 16.5733 49.1373 17.2279 49.4044L27.9673 53.7855C28.6704 54.0723 29.4577 54.0715 30.1602 53.7831L41.0127 49.3285C41.664 49.0612 42.1588 48.5121 42.3578 47.8359L44.7078 39.8502C44.8402 39.4002 44.4119 38.9798 43.9614 39.1083C41.9728 39.6757 38.57 40.4542 35.3408 40.5948Z" fill="#F5F5F5"/>
<path d="M47.0859 19.0493C43.6361 20.8759 33.8148 21.6008 29.0642 21.7358C24.3133 21.6008 14.395 20.8758 10.9362 19.049C10.609 18.8761 10.2449 18.7799 9.87973 18.8395C6.26958 19.4288 0.021534 21.0933 0.021534 23.7602C0.021534 27.2763 11.7237 30.4728 29.0642 30.2597C46.4047 30.4728 58.0005 27.2763 58.0005 23.7602C58.0005 21.0933 51.7524 19.4288 48.1423 18.8395C47.7771 18.7799 47.413 18.8762 47.0859 19.0493Z" fill="#F5F5F5"/>
<path d="M44.7703 16.2417C41.4913 17.8709 32.9779 18.5477 28.9251 18.6459C24.8722 18.5477 16.4652 17.7522 13.1862 16.123C12.6988 15.8808 12.4552 15.3813 12.5194 14.8402C12.8791 11.8095 14.7776 2.05099 16.2655 0.840215C16.691 0.414025 17.7548 -0.246577 19.8825 0.0943771C22.5421 0.52057 27.4357 3.40954 28.9251 3.30299C30.4144 3.40954 35.4145 0.639285 38.074 0.213093C40.2017 -0.127861 41.2655 0.532741 41.6911 0.95893C43.179 2.1697 45.0775 11.9283 45.4371 14.9589C45.5013 15.5001 45.2578 15.9995 44.7703 16.2417Z" fill="#F5F5F5"/>
</svg>
