<svg width="323" height="371" viewBox="0 0 323 371" fill="none" xmlns="http://www.w3.org/2000/svg">
<g clip-path="url(#clip0_1_364)">
<rect y="0.117188" width="323" height="370" fill="#201E21"/>
<g opacity="0.5">
<path d="M0.95105 0.117188V16.1172L10.6714 0.117188H0.95105Z" fill="#7327FF"/>
<path d="M20.8547 0.117188L0.95105 32.1172V56.1172L35.2037 0.117188H20.8547Z" fill="#7327FF"/>
<path d="M25.021 56.1172H10.6719L44.9245 0.117188H59.2736L25.021 56.1172Z" fill="#7327FF"/>
<path d="M49.5524 56.1172H35.2032L69.456 0.117188H83.805L49.5524 56.1172Z" fill="#7327FF"/>
<path d="M73.6228 56.1172H59.2737L93.5263 0.117188H107.875L73.6228 56.1172Z" fill="#7327FF"/>
<path d="M98.1542 56.1172H83.8051L117.595 0.117188H132.407L98.1542 56.1172Z" fill="#7327FF"/>
<path d="M122.224 56.1172H107.875L142.128 0.117188H156.477L122.224 56.1172Z" fill="#7327FF"/>
<path d="M146.756 56.1172H132.407L166.197 0.117188H180.546L146.756 56.1172Z" fill="#7327FF"/>
<path d="M170.826 56.1172H156.477L190.73 0.117188H205.079L170.826 56.1172Z" fill="#7327FF"/>
<path d="M195.357 56.1172H180.545L214.798 0.117188H229.147L195.357 56.1172Z" fill="#7327FF"/>
<path d="M219.428 56.1172H205.079L239.332 0.117188H253.681L219.428 56.1172Z" fill="#7327FF"/>
<path d="M243.496 56.1172H229.147L263.4 0.117188H277.749L243.496 56.1172Z" fill="#7327FF"/>
<path d="M287.47 0.117188L253.681 56.1172H268.03L293.488 14.2348V0.117188H287.47Z" fill="#7327FF"/>
<path d="M277.749 56.1167H292.098L293.486 53.7638V30.2344L277.749 56.1167Z" fill="#7327FF"/>
</g>
<circle cx="161.5" cy="145.5" r="68.5" fill="#F5F5F5"/>
<path d="M-268.081 42.3178C-271.788 47.3178 -276.757 50.1172 -281.933 50.1172H-295.627L-269.903 14.5038C-265.563 8.49597 -259.676 5.11719 -253.536 5.11719H-240.51L-268.081 42.3178ZM-204.999 5.11719H-218.024C-224.165 5.11719 -230.052 8.4911 -234.391 14.5038L-260.116 50.1172H-246.422C-241.245 50.1172 -236.276 47.3178 -232.569 42.3178L-204.999 5.11719ZM-169.487 5.11719H-182.513C-188.653 5.11719 -194.54 8.4911 -198.88 14.5038L-224.604 50.1172H-210.91C-205.734 50.1172 -200.765 47.3178 -197.058 42.3178L-169.487 5.11719ZM-133.976 5.11719H-147.002C-153.142 5.11719 -159.029 8.4911 -163.368 14.5038L-189.093 50.1172H-175.399C-170.222 50.1172 -165.253 47.3178 -161.547 42.3178L-133.976 5.11719ZM-98.4644 5.11719H-111.49C-117.627 5.11719 -123.517 8.4911 -127.857 14.5038L-153.581 50.1172H-139.887C-134.711 50.1172 -129.742 47.3178 -126.035 42.3178L-98.4644 5.11719ZM-62.9529 5.11719H-75.9787C-82.1153 5.11719 -88.0022 8.4911 -92.3453 14.5038L-118.07 50.1172H-104.376C-99.1994 50.1172 -94.2303 47.3178 -90.5237 42.3178L-62.9529 5.11719ZM-27.4415 5.11719H-40.4673C-46.6074 5.11719 -52.4943 8.4911 -56.8339 14.5038L-82.5584 50.1172H-68.8644C-63.6879 50.1172 -58.7188 47.3178 -55.0122 42.3178L-27.4415 5.11719ZM8.06995 5.11719H-4.95584C-11.096 5.11719 -16.9828 8.4911 -21.3224 14.5038L-47.047 50.1172H-33.3531C-28.1765 50.1172 -23.2074 47.3178 -19.5008 42.3178L8.06995 5.11719ZM43.5814 5.11719H30.5556C24.4154 5.11719 18.5286 8.4911 14.189 14.5038L-11.5356 50.1172H2.15839C7.33493 50.1172 12.304 47.3178 16.0106 42.3178L43.5814 5.11719ZM79.0928 5.11719H66.0671C59.9305 5.11719 54.04 8.4911 49.7004 14.5038L23.9759 50.1172H37.6699C42.8464 50.1172 47.8155 47.3178 51.5221 42.3178L79.0928 5.11719ZM114.604 5.11719H101.579C95.4419 5.11719 89.555 8.4911 85.2119 14.5038L59.4873 50.1172H73.1813C78.3579 50.1172 83.3269 47.3178 87.0335 42.3178L114.604 5.11719ZM150.116 5.11719H137.09C130.95 5.11719 125.063 8.4911 120.723 14.5038L94.9987 50.1172H108.693C113.869 50.1172 118.838 47.3178 122.545 42.3178L150.116 5.11719ZM185.627 5.11719H172.601C166.461 5.11719 160.574 8.4911 156.235 14.5038L130.51 50.1172H144.204C149.381 50.1172 154.35 47.3178 158.056 42.3178L185.627 5.11719ZM221.139 5.11719H208.113C201.973 5.11719 196.086 8.4911 191.746 14.5038L166.022 50.1172H179.716C184.892 50.1172 189.861 47.3178 193.568 42.3178L221.139 5.11719ZM256.65 5.11719H243.624C237.488 5.11719 231.597 8.4911 227.258 14.5038L201.533 50.1172H215.227C220.404 50.1172 225.373 47.3178 229.079 42.3178L256.65 5.11719ZM292.161 5.11719H279.136C272.999 5.11719 267.112 8.4911 262.769 14.5038L237.045 50.1172H250.738C255.915 50.1172 260.884 47.3178 264.591 42.3178L292.161 5.11719ZM327.673 5.11719H314.647C308.507 5.11719 302.62 8.4911 298.281 14.5038L272.556 50.1172H286.25C291.426 50.1172 296.396 47.3178 300.102 42.3178L327.673 5.11719ZM363.184 5.11719H350.159C344.018 5.11719 338.132 8.4911 333.792 14.5038L308.067 50.1172H321.761C326.938 50.1172 331.907 47.3178 335.614 42.3178L363.184 5.11719ZM398.696 5.11719H385.67C379.53 5.11719 373.643 8.4911 369.303 14.5038L343.579 50.1172H357.273C362.449 50.1172 367.418 47.3178 371.125 42.3178L398.696 5.11719ZM434.207 5.11719H421.181C415.041 5.11719 409.154 8.4911 404.815 14.5038L379.09 50.1172H392.784C397.961 50.1172 402.93 47.3178 406.636 42.3178L434.207 5.11719ZM469.719 5.11719H456.693C450.556 5.11719 444.666 8.4911 440.326 14.5038L414.602 50.1172H428.296C433.472 50.1172 438.441 47.3178 442.148 42.3178L469.719 5.11719Z" fill="#D9D9D9"/>
<line x1="98.3536" y1="341.471" x2="88.3536" y2="351.471" stroke="#D9D9D9"/>
<line x1="58.3536" y1="341.471" x2="48.3536" y2="351.471" stroke="#D9D9D9"/>
<line x1="88.3536" y1="341.471" x2="78.3536" y2="351.471" stroke="#D9D9D9"/>
<line x1="48.3536" y1="341.471" x2="38.3536" y2="351.471" stroke="#D9D9D9"/>
<line x1="78.3536" y1="341.471" x2="68.3536" y2="351.471" stroke="#D9D9D9"/>
<line x1="38.3536" y1="341.471" x2="28.3536" y2="351.471" stroke="#D9D9D9"/>
<line x1="68.3536" y1="341.471" x2="58.3536" y2="351.471" stroke="#D9D9D9"/>
<line x1="28.3536" y1="341.471" x2="18.3536" y2="351.471" stroke="#D9D9D9"/>
<rect x="267" y="351.117" width="7" height="24" transform="rotate(-90 267 351.117)" fill="#D9D9D9"/>
</g>
<rect x="1" y="1.11719" width="321" height="368" stroke="#7327FF" stroke-width="2"/>
<defs>
<clipPath id="clip0_1_364">
<rect y="0.117188" width="323" height="370" fill="white"/>
</clipPath>
</defs>
</svg>
