<svg width="321" height="402" viewBox="0 0 321 402" fill="none" xmlns="http://www.w3.org/2000/svg">
<path fill-rule="evenodd" clip-rule="evenodd" d="M263.374 303.431L190.837 229.523L119.164 303.431L95.8485 280.555L168.385 206.646L95.8485 132.738L119.164 108.982L190.837 182.89L263.374 108.982L286.689 132.738L214.152 206.646L286.689 280.555L263.374 303.431ZM190.837 219.844L263.374 293.753L277.19 279.675L204.653 205.766L277.19 131.858L263.374 118.66L190.837 192.568L118.3 118.66L104.484 131.858L177.021 205.766L104.484 279.675L118.3 293.753L190.837 219.844Z" fill="#323232"/>
<path d="M172.706 141.538L190.84 160.015L209.838 141.538H172.706Z" fill="#323232"/>
<path d="M209.838 271.759L190.84 253.282L172.706 271.759H209.838Z" fill="#323232"/>
<path d="M255.6 187.293L236.602 206.65L255.6 225.127V187.293Z" fill="#323232"/>
<path d="M126.941 225.127L145.938 206.65L126.941 187.293V225.127Z" fill="#323232"/>
<path d="M384.271 50.9132H382.544V28.9166H1.7269V45.6341H0V28.0369H384.271V50.9132Z" fill="#323232"/>
<path d="M384.271 379.1H0V356.224H1.7269V377.34H382.544V360.623H384.271V379.1Z" fill="#323232"/>
<g opacity="0.3">
<path fill-rule="evenodd" clip-rule="evenodd" d="M362.681 350.066H19.8595V63.2314H362.681V350.066ZM22.45 346.547H359.227V66.7508H22.45V346.547Z" fill="#323232"/>
<path d="M360.956 302.552H21.5881V299.033H360.956V302.552Z" fill="#323232"/>
<path d="M360.956 255.041H21.5881V252.402H360.956V255.041Z" fill="#323232"/>
<path d="M360.956 208.41H21.5881V204.89H360.956V208.41Z" fill="#323232"/>
<path d="M360.956 160.898H21.5881V157.378H360.956V160.898Z" fill="#323232"/>
<path d="M360.956 113.383H21.5881V110.743H360.956V113.383Z" fill="#323232"/>
<path d="M306.552 348.308H303.098V64.9929H306.552V348.308Z" fill="#323232"/>
<path d="M249.558 348.308H246.104V64.9929H249.558V348.308Z" fill="#323232"/>
<path d="M192.565 348.308H189.975V64.9929H192.565V348.308Z" fill="#323232"/>
<path d="M136.437 348.308H132.983V64.9929H136.437V348.308Z" fill="#323232"/>
<path d="M79.443 348.308H75.9889V64.9929H79.443V348.308Z" fill="#323232"/>
</g>
<path d="M50.9466 5.15962H24.1771V0.760315H50.9466V5.15962Z" fill="#323232"/>
<path d="M220.202 5.15962H213.294V0.760315H220.202V5.15962Z" fill="#323232"/>
<path d="M327.275 5.15962H320.367V0.760315H327.275V5.15962Z" fill="#323232"/>
<path d="M50.9466 401.097H24.1771V396.698H50.9466V401.097Z" fill="#323232"/>
<path d="M220.202 401.097H213.294V396.698H220.202V401.097Z" fill="#323232"/>
<path d="M327.275 401.097H320.367V396.698H327.275V401.097Z" fill="#323232"/>
<path d="M5.17776 72.03H0.860107V67.6307H5.17776V72.03Z" fill="#323232"/>
<path d="M56.9897 72.03H52.672V67.6307H56.9897V72.03Z" fill="#323232"/>
<path d="M196.023 72.03H191.706V67.6307H196.023V72.03Z" fill="#323232"/>
<path d="M5.17776 123.941H0.860107V119.542H5.17776V123.941Z" fill="#323232"/>
<path d="M56.9897 123.941H52.672V119.542H56.9897V123.941Z" fill="#323232"/>
<path d="M196.023 123.941H191.706V119.542H196.023V123.941Z" fill="#323232"/>
<path d="M5.17776 204.89H0.860107V200.491H5.17776V204.89Z" fill="#323232"/>
<path d="M56.9897 204.89H52.672V200.491H56.9897V204.89Z" fill="#323232"/>
<path d="M196.023 204.89H191.706V200.491H196.023V204.89Z" fill="#323232"/>
<path d="M5.17776 256.801H0.860107V252.402H5.17776V256.801Z" fill="#323232"/>
<path d="M56.9897 256.801H52.672V252.402H56.9897V256.801Z" fill="#323232"/>
<path d="M196.023 256.801H191.706V252.402H196.023V256.801Z" fill="#323232"/>
<path d="M5.17776 337.746H0.860107V333.346H5.17776V337.746Z" fill="#323232"/>
<path d="M56.9897 337.746H52.672V333.346H56.9897V337.746Z" fill="#323232"/>
<path d="M196.023 337.746H191.706V333.346H196.023V337.746Z" fill="#323232"/>
<path d="M5.17776 389.661H0.860107V385.262H5.17776V389.661Z" fill="#323232"/>
<path d="M56.9897 389.661H52.672V385.262H56.9897V389.661Z" fill="#323232"/>
<path d="M196.023 389.661H191.706V385.262H196.023V389.661Z" fill="#323232"/>
</svg>
