<svg width="20" height="935" viewBox="0 0 20 935" fill="none" xmlns="http://www.w3.org/2000/svg">
<rect x="15" y="24" width="7" height="24" transform="rotate(180 15 24)" fill="#D9D9D9"/>
<line x1="12.5" y1="935" x2="12.5" y2="775" stroke="white"/>
<line x1="9.35355" y1="572.646" x2="19.3536" y2="582.646" stroke="#D9D9D9"/>
<line x1="9.35355" y1="612.646" x2="19.3536" y2="622.646" stroke="#D9D9D9"/>
<line x1="9.35355" y1="582.646" x2="19.3536" y2="592.646" stroke="#D9D9D9"/>
<line x1="9.35355" y1="622.646" x2="19.3536" y2="632.646" stroke="#D9D9D9"/>
<line x1="9.35355" y1="592.646" x2="19.3536" y2="602.646" stroke="#D9D9D9"/>
<line x1="9.35355" y1="632.646" x2="19.3536" y2="642.646" stroke="#D9D9D9"/>
<line x1="9.35355" y1="602.646" x2="19.3536" y2="612.646" stroke="#D9D9D9"/>
<line x1="9.35355" y1="642.646" x2="19.3536" y2="652.646" stroke="#D9D9D9"/>
<path d="M8.07959 210.969C7.40088 210.969 6.79785 210.891 6.27051 210.734C5.74805 210.578 5.30859 210.354 4.95215 210.061C4.59082 209.768 4.31738 209.409 4.13184 208.984C3.94629 208.559 3.85352 208.073 3.85352 207.526C3.85352 206.984 3.94385 206.499 4.12451 206.069C4.31006 205.639 4.58594 205.275 4.95215 204.978C5.30859 204.68 5.74805 204.453 6.27051 204.296C6.79785 204.14 7.40088 204.062 8.07959 204.062L10.5771 204.062C11.2559 204.062 11.8564 204.14 12.3789 204.296C12.9063 204.453 13.3506 204.68 13.7119 204.978C14.0732 205.271 14.3467 205.629 14.5322 206.054C14.7227 206.484 14.8179 206.97 14.8179 207.512C14.8179 208.059 14.7227 208.544 14.5322 208.969C14.3467 209.399 14.0732 209.763 13.7119 210.061C13.3506 210.354 12.9063 210.578 12.3789 210.734C11.8564 210.891 11.2559 210.969 10.5771 210.969L8.07959 210.969ZM8.35059 205.424L11.5366 209.577C11.8882 209.538 12.1982 209.467 12.4668 209.365C12.7402 209.267 12.9673 209.133 13.1479 208.962C13.3335 208.796 13.4727 208.591 13.5654 208.347C13.6582 208.107 13.7046 207.829 13.7046 207.512C13.7046 207.189 13.6533 206.904 13.5508 206.655C13.4531 206.411 13.3091 206.203 13.1187 206.032C12.8794 205.827 12.5693 205.673 12.1885 205.571C11.8125 205.473 11.3755 205.424 10.8774 205.424L9.09033 205.424C8.96826 205.424 8.84619 205.424 8.72412 205.424C8.60205 205.424 8.47754 205.424 8.35059 205.424ZM7.79395 209.606L9.30273 209.606C9.37598 209.606 9.51514 209.606 9.72022 209.606C9.93018 209.606 10.1035 209.606 10.2402 209.606L7.06885 205.461C6.7124 205.505 6.39746 205.583 6.12402 205.695C5.85547 205.808 5.6333 205.954 5.45752 206.135C5.2915 206.301 5.16455 206.501 5.07666 206.735C4.99365 206.97 4.95215 207.233 4.95215 207.526C4.95215 207.834 4.99854 208.107 5.09131 208.347C5.18408 208.586 5.31836 208.789 5.49414 208.955C5.7334 209.179 6.0459 209.343 6.43164 209.445C6.81738 209.553 7.27148 209.606 7.79395 209.606ZM8.07959 219.978C7.40088 219.978 6.79785 219.899 6.27051 219.743C5.74805 219.587 5.30859 219.362 4.95215 219.069C4.59082 218.776 4.31738 218.417 4.13184 217.993C3.94629 217.568 3.85352 217.082 3.85352 216.535C3.85352 215.993 3.94385 215.507 4.12451 215.078C4.31006 214.648 4.58594 214.284 4.95215 213.986C5.30859 213.688 5.74805 213.461 6.27051 213.305C6.79785 213.149 7.40088 213.071 8.07959 213.071L10.5771 213.071C11.2559 213.071 11.8564 213.149 12.3789 213.305C12.9063 213.461 13.3506 213.688 13.7119 213.986C14.0732 214.279 14.3467 214.638 14.5322 215.063C14.7227 215.493 14.8179 215.979 14.8179 216.521C14.8179 217.067 14.7227 217.553 14.5322 217.978C14.3467 218.408 14.0732 218.771 13.7119 219.069C13.3506 219.362 12.9063 219.587 12.3789 219.743C11.8564 219.899 11.2559 219.978 10.5771 219.978L8.07959 219.978ZM8.35059 214.433L11.5366 218.586C11.8882 218.547 12.1982 218.476 12.4668 218.374C12.7402 218.276 12.9673 218.142 13.1479 217.971C13.3335 217.805 13.4727 217.6 13.5654 217.355C13.6582 217.116 13.7046 216.838 13.7046 216.521C13.7046 216.198 13.6533 215.913 13.5508 215.664C13.4531 215.419 13.3091 215.212 13.1187 215.041C12.8794 214.836 12.5693 214.682 12.1885 214.58C11.8125 214.482 11.3755 214.433 10.8774 214.433L9.09033 214.433C8.96826 214.433 8.84619 214.433 8.72412 214.433C8.60205 214.433 8.47754 214.433 8.35059 214.433ZM7.79395 218.615L9.30274 218.615C9.37598 218.615 9.51514 218.615 9.72022 218.615C9.93018 218.615 10.1035 218.615 10.2402 218.615L7.06885 214.47C6.7124 214.514 6.39746 214.592 6.12402 214.704C5.85547 214.816 5.6333 214.963 5.45752 215.144C5.2915 215.31 5.16455 215.51 5.07666 215.744C4.99365 215.979 4.95215 216.242 4.95215 216.535C4.95215 216.843 4.99854 217.116 5.09131 217.355C5.18408 217.595 5.31836 217.797 5.49414 217.963C5.7334 218.188 6.0459 218.352 6.43164 218.454C6.81738 218.562 7.27149 218.615 7.79395 218.615ZM8.07959 228.986C7.40088 228.986 6.79785 228.908 6.27051 228.752C5.74805 228.596 5.30859 228.371 4.95215 228.078C4.59082 227.785 4.31738 227.426 4.13184 227.001C3.94629 226.577 3.85352 226.091 3.85352 225.544C3.85352 225.002 3.94385 224.516 4.12451 224.086C4.31006 223.657 4.58594 223.293 4.95215 222.995C5.30859 222.697 5.74805 222.47 6.27051 222.314C6.79785 222.158 7.40088 222.08 8.07959 222.08L10.5771 222.08C11.2559 222.08 11.8564 222.158 12.3789 222.314C12.9063 222.47 13.3506 222.697 13.7119 222.995C14.0732 223.288 14.3467 223.647 14.5322 224.072C14.7227 224.501 14.8179 224.987 14.8179 225.529C14.8179 226.076 14.7227 226.562 14.5322 226.987C14.3467 227.417 14.0732 227.78 13.7119 228.078C13.3506 228.371 12.9063 228.596 12.3789 228.752C11.8564 228.908 11.2559 228.986 10.5771 228.986L8.07959 228.986ZM8.35059 223.442L11.5366 227.595C11.8882 227.556 12.1982 227.485 12.4668 227.382C12.7402 227.285 12.9673 227.15 13.148 226.979C13.3335 226.813 13.4727 226.608 13.5654 226.364C13.6582 226.125 13.7046 225.847 13.7046 225.529C13.7046 225.207 13.6533 224.921 13.5508 224.672C13.4531 224.428 13.3091 224.221 13.1187 224.05C12.8794 223.845 12.5693 223.691 12.1885 223.588C11.8125 223.491 11.3755 223.442 10.8774 223.442L9.09033 223.442C8.96826 223.442 8.84619 223.442 8.72412 223.442C8.60205 223.442 8.47754 223.442 8.35059 223.442ZM7.79395 227.624L9.30274 227.624C9.37598 227.624 9.51514 227.624 9.72022 227.624C9.93018 227.624 10.1035 227.624 10.2402 227.624L7.06885 223.479C6.7124 223.522 6.39746 223.601 6.12402 223.713C5.85547 223.825 5.6333 223.972 5.45752 224.152C5.2915 224.318 5.16455 224.519 5.07666 224.753C4.99365 224.987 4.95215 225.251 4.95215 225.544C4.95215 225.852 4.99854 226.125 5.09131 226.364C5.18408 226.604 5.31836 226.806 5.49414 226.972C5.7334 227.197 6.0459 227.36 6.43164 227.463C6.81738 227.57 7.27149 227.624 7.79395 227.624ZM8.07959 237.995C7.40088 237.995 6.79785 237.917 6.27051 237.761C5.74805 237.604 5.3086 237.38 4.95215 237.087C4.59082 236.794 4.31738 236.435 4.13184 236.01C3.94629 235.585 3.85352 235.1 3.85352 234.553C3.85352 234.011 3.94385 233.525 4.12451 233.095C4.31006 232.666 4.58594 232.302 4.95215 232.004C5.3086 231.706 5.74805 231.479 6.27051 231.323C6.79785 231.167 7.40088 231.088 8.07959 231.088L10.5771 231.088C11.2559 231.088 11.8564 231.167 12.3789 231.323C12.9063 231.479 13.3506 231.706 13.7119 232.004C14.0732 232.297 14.3467 232.656 14.5322 233.081C14.7227 233.51 14.8179 233.996 14.8179 234.538C14.8179 235.085 14.7227 235.571 14.5322 235.996C14.3467 236.425 14.0732 236.789 13.7119 237.087C13.3506 237.38 12.9063 237.604 12.3789 237.761C11.8564 237.917 11.2559 237.995 10.5771 237.995L8.07959 237.995ZM8.35059 232.451L11.5366 236.604C11.8882 236.564 12.1982 236.494 12.4668 236.391C12.7402 236.293 12.9673 236.159 13.148 235.988C13.3335 235.822 13.4727 235.617 13.5654 235.373C13.6582 235.134 13.7046 234.855 13.7046 234.538C13.7046 234.216 13.6533 233.93 13.5508 233.681C13.4531 233.437 13.3091 233.229 13.1187 233.059C12.8794 232.854 12.5693 232.7 12.1885 232.597C11.8125 232.5 11.3755 232.451 10.8774 232.451L9.09033 232.451C8.96826 232.451 8.84619 232.451 8.72412 232.451C8.60205 232.451 8.47754 232.451 8.35059 232.451ZM7.79395 236.633L9.30274 236.633C9.37598 236.633 9.51514 236.633 9.72022 236.633C9.93018 236.633 10.1035 236.633 10.2402 236.633L7.06885 232.487C6.7124 232.531 6.39746 232.609 6.12402 232.722C5.85547 232.834 5.6333 232.98 5.45752 233.161C5.29151 233.327 5.16455 233.527 5.07666 233.762C4.99365 233.996 4.95215 234.26 4.95215 234.553C4.95215 234.86 4.99854 235.134 5.09131 235.373C5.18408 235.612 5.31836 235.815 5.49414 235.981C5.7334 236.206 6.0459 236.369 6.43164 236.472C6.81738 236.579 7.27149 236.633 7.79395 236.633ZM4 244.704L4 243.349L12.9355 243.349L11.8735 240.559L13.1113 240.559L14.6641 244.594L14.6641 244.704L4 244.704ZM8.10889 255.244L8.10889 249.641L9.22217 249.641L9.22217 255.244L8.10889 255.244ZM8.07959 265.021C7.40088 265.021 6.79785 264.943 6.27051 264.787C5.74805 264.631 5.3086 264.406 4.95215 264.113C4.59082 263.82 4.31739 263.461 4.13184 263.037C3.94629 262.612 3.85352 262.126 3.85352 261.579C3.85352 261.037 3.94385 260.551 4.12451 260.122C4.31006 259.692 4.58594 259.328 4.95215 259.03C5.3086 258.732 5.74805 258.505 6.27051 258.349C6.79785 258.193 7.40088 258.115 8.07959 258.115L10.5772 258.115C11.2559 258.115 11.8564 258.193 12.3789 258.349C12.9063 258.505 13.3506 258.732 13.7119 259.03C14.0732 259.323 14.3467 259.682 14.5322 260.107C14.7227 260.537 14.8179 261.022 14.8179 261.564C14.8179 262.111 14.7227 262.597 14.5322 263.022C14.3467 263.452 14.0732 263.815 13.7119 264.113C13.3506 264.406 12.9063 264.631 12.3789 264.787C11.8564 264.943 11.2559 265.021 10.5772 265.021L8.07959 265.021ZM8.35059 259.477L11.5366 263.63C11.8882 263.591 12.1982 263.52 12.4668 263.417C12.7402 263.32 12.9673 263.186 13.148 263.015C13.3335 262.849 13.4727 262.644 13.5654 262.399C13.6582 262.16 13.7046 261.882 13.7046 261.564C13.7046 261.242 13.6533 260.957 13.5508 260.708C13.4531 260.463 13.3091 260.256 13.1187 260.085C12.8794 259.88 12.5693 259.726 12.1885 259.624C11.8125 259.526 11.3755 259.477 10.8774 259.477L9.09033 259.477C8.96826 259.477 8.84619 259.477 8.72412 259.477C8.60205 259.477 8.47754 259.477 8.35059 259.477ZM7.79395 263.659L9.30274 263.659C9.37598 263.659 9.51514 263.659 9.72022 263.659C9.93018 263.659 10.1035 263.659 10.2402 263.659L7.06885 259.514C6.7124 259.558 6.39746 259.636 6.12403 259.748C5.85547 259.86 5.6333 260.007 5.45752 260.188C5.29151 260.354 5.16455 260.554 5.07666 260.788C4.99365 261.022 4.95215 261.286 4.95215 261.579C4.95215 261.887 4.99854 262.16 5.09131 262.399C5.18408 262.639 5.31836 262.841 5.49414 263.007C5.7334 263.232 6.0459 263.396 6.43164 263.498C6.81739 263.605 7.27149 263.659 7.79395 263.659ZM8.07959 274.03C7.40088 274.03 6.79785 273.952 6.27051 273.796C5.74805 273.64 5.3086 273.415 4.95215 273.122C4.59082 272.829 4.31739 272.47 4.13184 272.045C3.94629 271.621 3.85352 271.135 3.85352 270.588C3.85352 270.046 3.94385 269.56 4.12451 269.13C4.31006 268.701 4.58594 268.337 4.95215 268.039C5.3086 267.741 5.74805 267.514 6.27051 267.358C6.79785 267.202 7.40088 267.124 8.07959 267.124L10.5772 267.124C11.2559 267.124 11.8564 267.202 12.3789 267.358C12.9063 267.514 13.3506 267.741 13.7119 268.039C14.0732 268.332 14.3467 268.691 14.5322 269.116C14.7227 269.545 14.8179 270.031 14.8179 270.573C14.8179 271.12 14.7227 271.606 14.5322 272.031C14.3467 272.46 14.0732 272.824 13.7119 273.122C13.3506 273.415 12.9063 273.64 12.3789 273.796C11.8564 273.952 11.2559 274.03 10.5772 274.03L8.07959 274.03ZM8.35059 268.486L11.5366 272.639C11.8882 272.6 12.1982 272.529 12.4668 272.426C12.7402 272.329 12.9673 272.194 13.148 272.023C13.3335 271.857 13.4727 271.652 13.5654 271.408C13.6582 271.169 13.7046 270.891 13.7046 270.573C13.7046 270.251 13.6533 269.965 13.5508 269.716C13.4531 269.472 13.3091 269.265 13.1187 269.094C12.8794 268.889 12.5693 268.735 12.1885 268.632C11.8125 268.535 11.3755 268.486 10.8774 268.486L9.09033 268.486C8.96826 268.486 8.84619 268.486 8.72412 268.486C8.60205 268.486 8.47754 268.486 8.35059 268.486ZM7.79395 272.668L9.30274 272.668C9.37598 272.668 9.51514 272.668 9.72022 272.668C9.93018 272.668 10.1035 272.668 10.2402 272.668L7.06885 268.522C6.71241 268.566 6.39746 268.645 6.12403 268.757C5.85547 268.869 5.6333 269.016 5.45752 269.196C5.29151 269.362 5.16455 269.563 5.07666 269.797C4.99366 270.031 4.95215 270.295 4.95215 270.588C4.95215 270.896 4.99854 271.169 5.09131 271.408C5.18409 271.647 5.31836 271.85 5.49414 272.016C5.7334 272.241 6.0459 272.404 6.43164 272.507C6.81739 272.614 7.27149 272.668 7.79395 272.668ZM4 280.739L4 279.384L12.9356 279.384L11.8735 276.594L13.1113 276.594L14.6641 280.629L14.6641 280.739L4 280.739ZM8.07959 292.048C7.40088 292.048 6.79786 291.97 6.27051 291.813C5.74805 291.657 5.3086 291.433 4.95215 291.14C4.59082 290.847 4.31739 290.488 4.13184 290.063C3.94629 289.638 3.85352 289.152 3.85352 288.605C3.85352 288.063 3.94385 287.578 4.12452 287.148C4.31006 286.718 4.58594 286.354 4.95215 286.057C5.3086 285.759 5.74805 285.532 6.27051 285.375C6.79786 285.219 7.40088 285.141 8.07959 285.141L10.5772 285.141C11.2559 285.141 11.8564 285.219 12.3789 285.375C12.9063 285.532 13.3506 285.759 13.7119 286.057C14.0732 286.35 14.3467 286.708 14.5322 287.133C14.7227 287.563 14.8179 288.049 14.8179 288.591C14.8179 289.138 14.7227 289.624 14.5322 290.048C14.3467 290.478 14.0732 290.842 13.7119 291.14C13.3506 291.433 12.9063 291.657 12.3789 291.813C11.8564 291.97 11.2559 292.048 10.5772 292.048L8.07959 292.048ZM8.35059 286.503L11.5366 290.656C11.8882 290.617 12.1982 290.546 12.4668 290.444C12.7402 290.346 12.9673 290.212 13.148 290.041C13.3335 289.875 13.4727 289.67 13.5654 289.426C13.6582 289.187 13.7046 288.908 13.7046 288.591C13.7046 288.269 13.6533 287.983 13.5508 287.734C13.4531 287.49 13.3091 287.282 13.1187 287.111C12.8794 286.906 12.5693 286.752 12.1885 286.65C11.8125 286.552 11.3755 286.503 10.8774 286.503L9.09034 286.503C8.96827 286.503 8.8462 286.503 8.72412 286.503C8.60205 286.503 8.47754 286.503 8.35059 286.503ZM7.79395 290.686L9.30274 290.686C9.37598 290.686 9.51514 290.686 9.72022 290.686C9.93018 290.686 10.1035 290.686 10.2402 290.686L7.06885 286.54C6.71241 286.584 6.39746 286.662 6.12403 286.774C5.85547 286.887 5.6333 287.033 5.45752 287.214C5.29151 287.38 5.16455 287.58 5.07666 287.814C4.99366 288.049 4.95215 288.313 4.95215 288.605C4.95215 288.913 4.99854 289.187 5.09131 289.426C5.18409 289.665 5.31836 289.868 5.49414 290.034C5.7334 290.258 6.0459 290.422 6.43164 290.524C6.81739 290.632 7.27149 290.686 7.79395 290.686ZM8.10889 300.288L8.10889 294.685L9.22217 294.685L9.22217 300.288L8.10889 300.288ZM4 307.766L4 306.411L12.9356 306.411L11.8735 303.62L13.1113 303.62L14.6641 307.656L14.6641 307.766L4 307.766ZM4 316.774L4 315.419L12.9356 315.419L11.8735 312.629L13.1113 312.629L14.6641 316.665L14.6641 316.774L4 316.774ZM8.0796 328.083C7.40088 328.083 6.79786 328.005 6.27051 327.849C5.74805 327.692 5.3086 327.468 4.95215 327.175C4.59083 326.882 4.31739 326.523 4.13184 326.098C3.94629 325.673 3.85352 325.188 3.85352 324.641C3.85352 324.099 3.94385 323.613 4.12452 323.183C4.31006 322.753 4.58594 322.39 4.95215 322.092C5.3086 321.794 5.74805 321.567 6.27051 321.411C6.79786 321.254 7.40088 321.176 8.0796 321.176L10.5772 321.176C11.2559 321.176 11.8565 321.254 12.3789 321.411C12.9063 321.567 13.3506 321.794 13.7119 322.092C14.0732 322.385 14.3467 322.744 14.5322 323.168C14.7227 323.598 14.8179 324.084 14.8179 324.626C14.8179 325.173 14.7227 325.659 14.5322 326.083C14.3467 326.513 14.0732 326.877 13.7119 327.175C13.3506 327.468 12.9063 327.692 12.3789 327.849C11.8565 328.005 11.2559 328.083 10.5772 328.083L8.0796 328.083ZM8.35059 322.539L11.5366 326.691C11.8882 326.652 12.1982 326.582 12.4668 326.479C12.7402 326.381 12.9673 326.247 13.148 326.076C13.3335 325.91 13.4727 325.705 13.5654 325.461C13.6582 325.222 13.7046 324.943 13.7046 324.626C13.7046 324.304 13.6533 324.018 13.5508 323.769C13.4531 323.525 13.3091 323.317 13.1187 323.146C12.8794 322.941 12.5693 322.788 12.1885 322.685C11.8125 322.587 11.3755 322.539 10.8774 322.539L9.09034 322.539C8.96827 322.539 8.8462 322.539 8.72413 322.539C8.60206 322.539 8.47754 322.539 8.35059 322.539ZM7.79395 326.721L9.30274 326.721C9.37598 326.721 9.51514 326.721 9.72022 326.721C9.93018 326.721 10.1035 326.721 10.2402 326.721L7.06885 322.575C6.71241 322.619 6.39747 322.697 6.12403 322.81C5.85547 322.922 5.63331 323.068 5.45752 323.249C5.29151 323.415 5.16456 323.615 5.07667 323.85C4.99366 324.084 4.95215 324.348 4.95215 324.641C4.95215 324.948 4.99854 325.222 5.09131 325.461C5.18409 325.7 5.31836 325.903 5.49415 326.069C5.7334 326.293 6.0459 326.457 6.43165 326.56C6.81739 326.667 7.27149 326.721 7.79395 326.721ZM8.0796 337.092C7.40088 337.092 6.79786 337.014 6.27051 336.857C5.74805 336.701 5.3086 336.477 4.95215 336.184C4.59083 335.891 4.31739 335.532 4.13184 335.107C3.94629 334.682 3.85352 334.196 3.85352 333.649C3.85352 333.107 3.94385 332.622 4.12452 332.192C4.31006 331.762 4.58594 331.398 4.95215 331.101C5.3086 330.803 5.74805 330.576 6.27051 330.419C6.79786 330.263 7.40088 330.185 8.0796 330.185L10.5772 330.185C11.2559 330.185 11.8565 330.263 12.3789 330.419C12.9063 330.576 13.3506 330.803 13.7119 331.101C14.0732 331.394 14.3467 331.752 14.5322 332.177C14.7227 332.607 14.8179 333.093 14.8179 333.635C14.8179 334.182 14.7227 334.667 14.5322 335.092C14.3467 335.522 14.0732 335.886 13.7119 336.184C13.3506 336.477 12.9063 336.701 12.3789 336.857C11.8565 337.014 11.2559 337.092 10.5772 337.092L8.0796 337.092ZM8.35059 331.547L11.5366 335.7C11.8882 335.661 12.1982 335.59 12.4668 335.488C12.7402 335.39 12.9673 335.256 13.148 335.085C13.3335 334.919 13.4727 334.714 13.5654 334.47C13.6582 334.23 13.7046 333.952 13.7046 333.635C13.7046 333.313 13.6533 333.027 13.5508 332.778C13.4531 332.534 13.3091 332.326 13.1187 332.155C12.8794 331.95 12.5693 331.796 12.1885 331.694C11.8125 331.596 11.3755 331.547 10.8774 331.547L9.09034 331.547C8.96827 331.547 8.8462 331.547 8.72413 331.547C8.60206 331.547 8.47754 331.547 8.35059 331.547ZM7.79395 335.729L9.30274 335.729C9.37598 335.729 9.51514 335.729 9.72022 335.729C9.93018 335.729 10.1035 335.729 10.2402 335.729L7.06885 331.584C6.71241 331.628 6.39747 331.706 6.12403 331.818C5.85547 331.931 5.63331 332.077 5.45753 332.258C5.29151 332.424 5.16456 332.624 5.07667 332.858C4.99366 333.093 4.95215 333.356 4.95215 333.649C4.95215 333.957 4.99854 334.23 5.09131 334.47C5.18409 334.709 5.31837 334.912 5.49415 335.078C5.7334 335.302 6.0459 335.466 6.43165 335.568C6.81739 335.676 7.27149 335.729 7.79395 335.729Z" fill="#D9D9D9"/>
</svg>
